%
M48
M72
T01C0.0150
T02C0.0320
T03C0.0400
T04C0.0591
%
T01
X6700Y6200
X7700Y5300
X7400Y4300
X7000Y2800
X8800Y3100
X11600Y3100
X10500Y6500
X11400Y7900
X12300Y7100
X12400Y10900
X11800Y10900
X13800Y12300
X13800Y12700
X8500Y6600
X8100Y6800
X8100Y7700
X7700Y7700
X7300Y7700
X6400Y7600
X6500Y10100
T02
X2000Y7500
X1250Y7000
X2000Y6500
X4500Y5000
X4500Y4000
X6000Y1500
X7000Y1500
X8000Y1500
X9000Y1500
X10000Y1500
X11000Y1500
X12000Y1500
X13000Y1500
X16500Y3000
X17500Y3000
X17500Y9000
X17500Y12000
T03
X1000Y1500
X1000Y2500
X2000Y2500
X2000Y1500
X3000Y1500
X3000Y2500
X4000Y2500
X4000Y1500
X6000Y9500
X7000Y9500
X8000Y9500
X9000Y9500
X10000Y9500
X11000Y9500
X12000Y9500
X13000Y9500
X14000Y9500
X15000Y9500
X16000Y6500
X18000Y6500
X17500Y14000
X17500Y15000
X17500Y16000
X16500Y16000
X16500Y15000
X16500Y14000
X14000Y20000
X13000Y20000
X12000Y20000
T04
X9937Y17000
X2063Y17000
M30
