G75*
G70*
%OFA0B0*%
%FSLAX24Y24*%
%IPPOS*%
%LPD*%
%AMOC8*
5,1,8,0,0,1.08239X$1,22.5*
%
%ADD10R,0.0500X0.0220*%
%ADD11R,0.0220X0.0500*%
%ADD12R,0.0866X0.0236*%
%ADD13R,0.0600X0.0600*%
%ADD14OC8,0.0600*%
%ADD15C,0.0520*%
%ADD16OC8,0.0886*%
%ADD17OC8,0.0520*%
%ADD18R,0.0710X0.0630*%
%ADD19C,0.0520*%
%ADD20R,0.0900X0.0600*%
%ADD21C,0.0600*%
%ADD22R,0.0217X0.0472*%
%ADD23C,0.0560*%
%ADD24R,0.0630X0.0710*%
%ADD25C,0.1000*%
%ADD26OC8,0.1000*%
%ADD27R,0.0630X0.0512*%
%ADD28C,0.0100*%
%ADD29C,0.0310*%
%ADD30C,0.0160*%
D10*
X005810Y005398D03*
X005810Y005713D03*
X005810Y006028D03*
X005810Y006343D03*
X005810Y006657D03*
X005810Y006972D03*
X005810Y007287D03*
X005810Y007602D03*
X009190Y007602D03*
X009190Y007287D03*
X009190Y006972D03*
X009190Y006657D03*
X009190Y006343D03*
X009190Y006028D03*
X009190Y005713D03*
X009190Y005398D03*
D11*
X008602Y004810D03*
X008287Y004810D03*
X007972Y004810D03*
X007657Y004810D03*
X007343Y004810D03*
X007028Y004810D03*
X006713Y004810D03*
X006398Y004810D03*
X006398Y008190D03*
X006713Y008190D03*
X007028Y008190D03*
X007343Y008190D03*
X007657Y008190D03*
X007972Y008190D03*
X008287Y008190D03*
X008602Y008190D03*
D12*
X011533Y011250D03*
X011533Y011750D03*
X011533Y012250D03*
X011533Y012750D03*
X014467Y012750D03*
X014467Y012250D03*
X014467Y011750D03*
X014467Y011250D03*
D13*
X017500Y014000D03*
D14*
X017500Y015000D03*
X017500Y016000D03*
X016500Y016000D03*
X016500Y015000D03*
X016500Y014000D03*
X004000Y002500D03*
X004000Y001500D03*
X003000Y001500D03*
X003000Y002500D03*
X002000Y002500D03*
X002000Y001500D03*
X001000Y001500D03*
X001000Y002500D03*
D15*
X006000Y001760D02*
X006000Y001240D01*
X007000Y001240D02*
X007000Y001760D01*
X008000Y001760D02*
X008000Y001240D01*
X009000Y001240D02*
X009000Y001760D01*
X010000Y001760D02*
X010000Y001240D01*
X011000Y001240D02*
X011000Y001760D01*
X012000Y001760D02*
X012000Y001240D01*
X013000Y001240D02*
X013000Y001760D01*
D16*
X009937Y017000D03*
X002063Y017000D03*
D17*
X002000Y007500D03*
X001250Y007000D03*
X002000Y006500D03*
X017500Y009000D03*
X017500Y012000D03*
D18*
X011000Y005560D03*
X011000Y004440D03*
X010000Y013440D03*
X010000Y014560D03*
X001500Y013060D03*
X001500Y011940D03*
D19*
X004500Y005000D03*
X004500Y004000D03*
D20*
X015700Y018600D03*
X015700Y020400D03*
X018300Y020400D03*
X018300Y018600D03*
D21*
X014000Y019700D02*
X014000Y020300D01*
X013000Y020300D02*
X013000Y019700D01*
X012000Y019700D02*
X012000Y020300D01*
X012000Y009800D02*
X012000Y009200D01*
X011000Y009200D02*
X011000Y009800D01*
X010000Y009800D02*
X010000Y009200D01*
X009000Y009200D02*
X009000Y009800D01*
X008000Y009800D02*
X008000Y009200D01*
X007000Y009200D02*
X007000Y009800D01*
X006000Y009800D02*
X006000Y009200D01*
X013000Y009200D02*
X013000Y009800D01*
X014000Y009800D02*
X014000Y009200D01*
X015000Y009200D02*
X015000Y009800D01*
D22*
X013374Y017488D03*
X012626Y017488D03*
X012626Y018512D03*
X013000Y018512D03*
X013374Y018512D03*
D23*
X016500Y003000D03*
X017500Y003000D03*
D24*
X014060Y003500D03*
X012940Y003500D03*
X012940Y005000D03*
X014060Y005000D03*
X014060Y006500D03*
X012940Y006500D03*
D25*
X016000Y006500D03*
D26*
X018000Y006500D03*
D27*
X013500Y015626D03*
X013500Y016374D03*
D28*
X013500Y017300D01*
X013400Y017400D01*
X013374Y017488D01*
X012800Y018100D02*
X012000Y018100D01*
X009300Y018100D01*
X009300Y013500D01*
X010000Y013500D01*
X010000Y013440D01*
X010000Y013400D01*
X010900Y012500D01*
X010900Y012100D01*
X011200Y011800D01*
X011500Y011800D01*
X011533Y011750D01*
X011600Y011800D01*
X011533Y012250D02*
X011600Y012300D01*
X011600Y012700D01*
X011533Y012750D01*
X011600Y012800D01*
X011600Y012900D01*
X010000Y014500D01*
X010000Y014560D01*
X010000Y017000D01*
X009937Y017000D01*
X012000Y018100D02*
X012000Y020000D01*
X012700Y019700D02*
X012700Y019400D01*
X013300Y018800D01*
X013300Y018600D01*
X013374Y018512D01*
X013000Y018500D02*
X013000Y018512D01*
X013000Y018500D02*
X012900Y018400D01*
X012900Y018200D01*
X012800Y018100D01*
X012626Y018512D02*
X012700Y018600D01*
X012700Y019400D01*
X012700Y019700D02*
X013000Y020000D01*
X014000Y020000D02*
X014000Y016100D01*
X013500Y015600D01*
X013500Y015626D01*
X013500Y015600D02*
X011600Y013700D01*
X011600Y012900D01*
X012400Y011700D02*
X012400Y010900D01*
X011800Y010900D02*
X011500Y010600D01*
X011500Y008200D01*
X011700Y008000D01*
X011700Y003200D01*
X011600Y003100D01*
X011700Y002800D02*
X009100Y002800D01*
X009100Y005300D01*
X009190Y005398D01*
X009200Y005700D02*
X009190Y005713D01*
X009100Y005800D01*
X008100Y005800D01*
X008100Y006800D01*
X008100Y007200D02*
X008100Y007700D01*
X007700Y007700D02*
X007700Y008100D01*
X007657Y008190D01*
X007900Y008200D02*
X007972Y008190D01*
X007900Y008200D02*
X007900Y008600D01*
X007000Y009500D01*
X006500Y009100D02*
X006500Y010100D01*
X006500Y009100D02*
X007000Y008600D01*
X007000Y008200D01*
X007028Y008190D01*
X007300Y008100D02*
X007343Y008190D01*
X007300Y008100D02*
X007300Y007700D01*
X006700Y008100D02*
X006713Y008190D01*
X006700Y008100D02*
X006700Y006200D01*
X006200Y006100D02*
X006200Y005200D01*
X006000Y005000D01*
X006000Y003000D01*
X001500Y003000D01*
X001000Y002500D01*
X000500Y002000D02*
X000500Y005000D01*
X000800Y005300D01*
X000800Y012300D01*
X001500Y013000D01*
X001500Y013060D01*
X001500Y013100D01*
X001900Y013500D01*
X009300Y013500D01*
X011000Y011500D02*
X012100Y011500D01*
X012100Y009600D01*
X012000Y009500D01*
X011000Y009500D02*
X010500Y009000D01*
X010500Y007300D01*
X009200Y007300D01*
X009190Y007287D01*
X009190Y007602D02*
X009200Y007700D01*
X010000Y008500D01*
X010000Y009500D01*
X009500Y010000D02*
X011000Y011500D01*
X011533Y011250D02*
X011600Y011200D01*
X011800Y011000D01*
X011800Y010900D01*
X012400Y011700D02*
X014200Y013500D01*
X014200Y018900D01*
X015700Y020400D01*
X018300Y020400D01*
X018300Y018600D02*
X016500Y018600D01*
X016500Y016000D01*
X016400Y015500D02*
X017500Y015500D01*
X017500Y015000D01*
X016500Y015000D02*
X016000Y014500D01*
X016000Y011300D01*
X014500Y011300D01*
X014467Y011250D01*
X014500Y011200D01*
X014500Y007800D01*
X013400Y006700D01*
X013400Y003100D01*
X012500Y002200D01*
X010000Y002200D01*
X010000Y001500D01*
X010000Y000800D01*
X008900Y000800D01*
X008600Y001100D01*
X008600Y002000D01*
X008300Y002300D01*
X008300Y004800D01*
X008287Y004810D01*
X008000Y004800D02*
X007972Y004810D01*
X008000Y004800D02*
X008000Y002300D01*
X008400Y001900D01*
X008400Y001000D01*
X008800Y000600D01*
X013600Y000600D01*
X013600Y006100D01*
X014000Y006500D01*
X014060Y006500D01*
X014100Y006500D01*
X016700Y009100D01*
X016700Y011200D01*
X017500Y012000D01*
X016500Y011000D02*
X016500Y014000D01*
X015800Y014900D02*
X016400Y015500D01*
X015800Y014900D02*
X015800Y011800D01*
X014500Y011800D01*
X014467Y011750D01*
X014400Y011700D01*
X013500Y011700D01*
X013500Y008700D01*
X011900Y007100D01*
X011900Y003000D01*
X011700Y002800D01*
X012940Y003500D02*
X013000Y003500D01*
X013000Y005000D01*
X012940Y005000D01*
X013000Y005000D02*
X013000Y006500D01*
X012940Y006500D01*
X012900Y006500D01*
X012300Y007100D01*
X011400Y007900D02*
X010200Y006700D01*
X010200Y006100D01*
X009200Y006100D01*
X009190Y006028D01*
X009200Y005700D02*
X010500Y005700D01*
X010500Y005000D01*
X011000Y004500D01*
X011000Y004440D01*
X011000Y005560D02*
X011000Y005600D01*
X010500Y006100D01*
X010500Y006500D01*
X009190Y006657D02*
X009100Y006600D01*
X008500Y006600D01*
X008800Y007000D02*
X008800Y007800D01*
X009500Y008500D01*
X009500Y010000D01*
X009000Y009500D02*
X009000Y008500D01*
X008700Y008200D01*
X008602Y008190D01*
X008287Y008190D02*
X008200Y008200D01*
X008200Y009300D01*
X008000Y009500D01*
X006400Y007600D02*
X005900Y007600D01*
X005810Y007602D01*
X005810Y007287D02*
X005800Y007200D01*
X002300Y007200D01*
X002100Y007000D01*
X001250Y007000D01*
X002000Y007500D02*
X002000Y011400D01*
X001500Y011900D01*
X001500Y011940D01*
X001900Y013500D02*
X002000Y013600D01*
X002000Y017000D01*
X002063Y017000D01*
X008100Y007200D02*
X006400Y005500D01*
X006400Y004900D01*
X006398Y004810D01*
X006700Y004800D02*
X006713Y004810D01*
X006700Y004800D02*
X006700Y001800D01*
X007000Y001500D01*
X007300Y000800D02*
X002500Y000800D01*
X002500Y002000D01*
X002000Y002500D01*
X001000Y001500D02*
X000500Y002000D01*
X000800Y005300D02*
X002000Y006500D01*
X005400Y006500D01*
X005400Y006400D01*
X005800Y006400D01*
X005810Y006343D01*
X005900Y006100D02*
X005810Y006028D01*
X005900Y006100D02*
X006200Y006100D01*
X006200Y006500D01*
X006100Y006600D01*
X005900Y006600D01*
X005810Y006657D01*
X005800Y006900D02*
X005810Y006972D01*
X005800Y007000D01*
X005800Y006900D02*
X005500Y006900D01*
X005400Y006800D01*
X005400Y006500D01*
X005810Y005713D02*
X005800Y005700D01*
X004500Y005700D01*
X004500Y005000D01*
X004500Y004000D02*
X005800Y005300D01*
X005810Y005398D01*
X007000Y004800D02*
X007028Y004810D01*
X007000Y004800D02*
X007000Y002800D01*
X006000Y003000D02*
X006000Y001500D01*
X007300Y000800D02*
X008000Y001500D01*
X009000Y001500D02*
X009100Y001600D01*
X009100Y002800D01*
X008800Y003100D02*
X008800Y004700D01*
X008700Y004800D01*
X008602Y004810D01*
X007700Y004900D02*
X007657Y004810D01*
X007700Y004900D02*
X007700Y005300D01*
X007400Y004800D02*
X007343Y004810D01*
X007400Y004800D02*
X007400Y004300D01*
X008800Y007000D02*
X009100Y007000D01*
X009190Y006972D01*
X014060Y005000D02*
X016000Y005000D01*
X016000Y006500D01*
X018000Y006500D02*
X018000Y003500D01*
X017500Y003000D01*
X016500Y003000D02*
X016500Y003500D01*
X014060Y003500D01*
X018000Y006500D02*
X018000Y008500D01*
X017500Y009000D01*
X016500Y011000D02*
X015000Y009500D01*
X014467Y012250D02*
X014400Y012300D01*
X013800Y012300D01*
X013800Y012700D02*
X014400Y012700D01*
X014467Y012750D01*
X015700Y018600D02*
X016500Y018600D01*
D29*
X013800Y012700D03*
X013800Y012300D03*
X012400Y010900D03*
X011800Y010900D03*
X011400Y007900D03*
X012300Y007100D03*
X010500Y006500D03*
X008500Y006600D03*
X008100Y006800D03*
X008100Y007700D03*
X007700Y007700D03*
X007300Y007700D03*
X006400Y007600D03*
X006700Y006200D03*
X007700Y005300D03*
X007400Y004300D03*
X007000Y002800D03*
X008800Y003100D03*
X011600Y003100D03*
X006500Y010100D03*
D30*
X000230Y000230D02*
X000230Y021266D01*
X019140Y021266D01*
X019140Y000230D01*
X000230Y000230D01*
X000230Y000317D02*
X019140Y000317D01*
X019140Y000476D02*
X013819Y000476D01*
X013812Y000458D02*
X013850Y000550D01*
X013850Y002945D01*
X014458Y002945D01*
X014575Y003062D01*
X014575Y003250D01*
X016084Y003250D01*
X016020Y003095D01*
X016020Y002905D01*
X016093Y002728D01*
X016228Y002593D01*
X016405Y002520D01*
X016595Y002520D01*
X016772Y002593D01*
X016907Y002728D01*
X016980Y002905D01*
X016980Y003095D01*
X016907Y003272D01*
X016772Y003407D01*
X016750Y003416D01*
X016750Y003550D01*
X016712Y003642D01*
X016642Y003712D01*
X016550Y003750D01*
X014575Y003750D01*
X014575Y003938D01*
X014458Y004055D01*
X013850Y004055D01*
X013850Y004445D01*
X014458Y004445D01*
X014575Y004562D01*
X014575Y004750D01*
X016050Y004750D01*
X016142Y004788D01*
X016212Y004858D01*
X016250Y004950D01*
X016250Y005846D01*
X016397Y005907D01*
X016593Y006103D01*
X016700Y006361D01*
X016700Y006639D01*
X016593Y006897D01*
X016397Y007093D01*
X016139Y007200D01*
X015861Y007200D01*
X015603Y007093D01*
X015407Y006897D01*
X015300Y006639D01*
X015300Y006361D01*
X015407Y006103D01*
X015603Y005907D01*
X015750Y005846D01*
X015750Y005250D01*
X014575Y005250D01*
X014575Y005438D01*
X014458Y005555D01*
X013850Y005555D01*
X013850Y005945D01*
X014458Y005945D01*
X014575Y006062D01*
X014575Y006621D01*
X016912Y008958D01*
X016950Y009050D01*
X016950Y011096D01*
X017394Y011540D01*
X017691Y011540D01*
X017960Y011809D01*
X017960Y012191D01*
X017691Y012460D01*
X017309Y012460D01*
X017040Y012191D01*
X017040Y011894D01*
X016750Y011604D01*
X016750Y013543D01*
X017000Y013793D01*
X017000Y014207D01*
X016707Y014500D01*
X017000Y014793D01*
X017293Y014500D01*
X017707Y014500D01*
X018000Y014793D01*
X018000Y015207D01*
X017750Y015457D01*
X017750Y015543D01*
X018000Y015793D01*
X018000Y016207D01*
X017707Y016500D01*
X017293Y016500D01*
X017000Y016207D01*
X017000Y015793D01*
X017043Y015750D01*
X016929Y015750D01*
X016980Y015801D01*
X016980Y015980D01*
X016520Y015980D01*
X016520Y016020D01*
X016480Y016020D01*
X016480Y016480D01*
X016301Y016480D01*
X016020Y016199D01*
X016020Y016020D01*
X016480Y016020D01*
X016480Y015980D01*
X016020Y015980D01*
X016020Y015801D01*
X016184Y015637D01*
X015588Y015042D01*
X015550Y014950D01*
X015550Y012050D01*
X015100Y012050D01*
X015100Y012451D01*
X015051Y012500D01*
X015100Y012549D01*
X015100Y012951D01*
X014982Y013068D01*
X014122Y013068D01*
X014412Y013358D01*
X014450Y013450D01*
X014450Y018796D01*
X015554Y019900D01*
X016233Y019900D01*
X016350Y020017D01*
X016350Y020150D01*
X017650Y020150D01*
X017650Y020017D01*
X017767Y019900D01*
X018833Y019900D01*
X018950Y020017D01*
X018950Y020783D01*
X018833Y020900D01*
X017767Y020900D01*
X017650Y020783D01*
X017650Y020650D01*
X016350Y020650D01*
X016350Y020783D01*
X016233Y020900D01*
X015167Y020900D01*
X015050Y020783D01*
X015050Y020104D01*
X014467Y019520D01*
X014500Y019601D01*
X014500Y020399D01*
X014424Y020583D01*
X014283Y020724D01*
X014099Y020800D01*
X013901Y020800D01*
X013717Y020724D01*
X013576Y020583D01*
X013500Y020399D01*
X013500Y019601D01*
X013576Y019417D01*
X013717Y019276D01*
X013750Y019262D01*
X013750Y016830D01*
X013750Y017350D01*
X013712Y017442D01*
X013682Y017471D01*
X013682Y017807D01*
X013565Y017924D01*
X013183Y017924D01*
X013066Y017807D01*
X013066Y017169D01*
X013183Y017052D01*
X013250Y017052D01*
X013250Y016830D01*
X013102Y016830D01*
X012985Y016713D01*
X012985Y016035D01*
X013020Y016000D01*
X012985Y015965D01*
X012985Y015439D01*
X011458Y013912D01*
X011388Y013842D01*
X011350Y013750D01*
X011350Y013504D01*
X010555Y014299D01*
X010555Y014958D01*
X010438Y015075D01*
X010250Y015075D01*
X010250Y016404D01*
X010580Y016734D01*
X010580Y017266D01*
X010203Y017643D01*
X009671Y017643D01*
X009294Y017266D01*
X009294Y016734D01*
X009671Y016357D01*
X009750Y016357D01*
X009750Y015075D01*
X009562Y015075D01*
X009445Y014958D01*
X009445Y014162D01*
X009562Y014045D01*
X010102Y014045D01*
X010211Y013935D01*
X010077Y013935D01*
X010077Y013518D01*
X009923Y013518D01*
X009923Y013935D01*
X009621Y013935D01*
X009576Y013923D01*
X009535Y013899D01*
X009501Y013866D01*
X009477Y013825D01*
X009465Y013779D01*
X009465Y013518D01*
X009923Y013518D01*
X009923Y013363D01*
X010077Y013363D01*
X010077Y012945D01*
X010379Y012945D01*
X010424Y012957D01*
X010465Y012981D01*
X010499Y013015D01*
X010523Y013056D01*
X010535Y013101D01*
X010535Y013363D01*
X010077Y013363D01*
X010077Y013518D01*
X010535Y013518D01*
X010535Y013612D01*
X011078Y013068D01*
X011018Y013068D01*
X010900Y012951D01*
X010900Y012549D01*
X010949Y012500D01*
X010900Y012451D01*
X010900Y012049D01*
X010964Y011986D01*
X010956Y011979D01*
X010933Y011938D01*
X010920Y011892D01*
X010920Y011750D01*
X011533Y011750D01*
X010950Y011750D01*
X010920Y011750D01*
X010920Y011738D01*
X010858Y011712D01*
X010788Y011642D01*
X009327Y010180D01*
X009283Y010224D01*
X009099Y010300D01*
X008901Y010300D01*
X008717Y010224D01*
X008576Y010083D01*
X008500Y009899D01*
X008424Y010083D01*
X008283Y010224D01*
X008099Y010300D01*
X007901Y010300D01*
X007717Y010224D01*
X007576Y010083D01*
X007500Y009899D01*
X007424Y010083D01*
X007283Y010224D01*
X007099Y010300D01*
X006901Y010300D01*
X006816Y010265D01*
X006801Y010301D01*
X006701Y010401D01*
X006571Y010455D01*
X006429Y010455D01*
X006299Y010401D01*
X006199Y010301D01*
X006184Y010265D01*
X006099Y010300D01*
X005901Y010300D01*
X005717Y010224D01*
X005576Y010083D01*
X005500Y009899D01*
X005500Y009101D01*
X005576Y008917D01*
X005717Y008776D01*
X005901Y008700D01*
X006099Y008700D01*
X006283Y008776D01*
X006377Y008870D01*
X006606Y008640D01*
X006205Y008640D01*
X006088Y008523D01*
X006088Y007912D01*
X005477Y007912D01*
X005360Y007795D01*
X005360Y007450D01*
X002460Y007450D01*
X002460Y007691D01*
X002250Y007901D01*
X002250Y011450D01*
X002212Y011542D01*
X002142Y011612D01*
X002055Y011699D01*
X002055Y012338D01*
X001938Y012455D01*
X001062Y012455D01*
X000945Y012338D01*
X000945Y011542D01*
X001062Y011425D01*
X001621Y011425D01*
X001750Y011296D01*
X001750Y007901D01*
X001540Y007691D01*
X001540Y007361D01*
X001441Y007460D01*
X001059Y007460D01*
X000790Y007191D01*
X000790Y006809D01*
X001059Y006540D01*
X001441Y006540D01*
X001560Y006659D01*
X001560Y006500D01*
X002000Y006500D01*
X002440Y006500D01*
X002440Y006682D01*
X002288Y006834D01*
X002312Y006858D01*
X002312Y006858D01*
X002404Y006950D01*
X005380Y006950D01*
X005380Y006870D01*
X005360Y006850D01*
X005360Y006465D01*
X005380Y006445D01*
X005380Y006343D01*
X005810Y006343D01*
X005810Y006347D01*
X005810Y006343D01*
X005810Y006343D01*
X005810Y006343D01*
X005832Y006343D01*
X005810Y006343D01*
X005810Y006343D01*
X005380Y006343D01*
X005380Y006240D01*
X005360Y006220D01*
X005360Y005950D01*
X004450Y005950D01*
X004358Y005912D01*
X004288Y005842D01*
X004250Y005750D01*
X004250Y005394D01*
X004239Y005390D01*
X004110Y005261D01*
X004040Y005091D01*
X004040Y004908D01*
X004110Y004739D01*
X004239Y004610D01*
X004408Y004540D01*
X004591Y004540D01*
X004754Y004607D01*
X004602Y004456D01*
X004591Y004460D01*
X004408Y004460D01*
X004239Y004390D01*
X004110Y004261D01*
X004040Y004091D01*
X004040Y003908D01*
X004110Y003739D01*
X004239Y003610D01*
X004408Y003540D01*
X004591Y003540D01*
X004761Y003610D01*
X004890Y003739D01*
X004960Y003908D01*
X004960Y004091D01*
X004956Y004102D01*
X005750Y004896D01*
X005750Y003250D01*
X001450Y003250D01*
X001358Y003212D01*
X001288Y003142D01*
X001146Y003000D01*
X000793Y003000D01*
X000500Y002707D01*
X000500Y002293D01*
X000793Y002000D01*
X001207Y002000D01*
X001500Y002293D01*
X001793Y002000D01*
X001500Y001707D01*
X001500Y001293D01*
X001793Y001000D01*
X002207Y001000D01*
X002250Y001043D01*
X002250Y000750D01*
X002288Y000658D01*
X002358Y000588D01*
X002450Y000550D01*
X007350Y000550D01*
X007442Y000588D01*
X007512Y000658D01*
X007722Y000868D01*
X007739Y000850D01*
X007908Y000780D01*
X008091Y000780D01*
X008215Y000831D01*
X008588Y000458D01*
X008658Y000388D01*
X008750Y000350D01*
X013650Y000350D01*
X013742Y000388D01*
X013812Y000458D01*
X013850Y000634D02*
X019140Y000634D01*
X019140Y000793D02*
X013850Y000793D01*
X013850Y000951D02*
X019140Y000951D01*
X019140Y001110D02*
X013850Y001110D01*
X013850Y001268D02*
X019140Y001268D01*
X019140Y001427D02*
X013850Y001427D01*
X013850Y001585D02*
X019140Y001585D01*
X019140Y001744D02*
X013850Y001744D01*
X013850Y001902D02*
X019140Y001902D01*
X019140Y002061D02*
X013850Y002061D01*
X013850Y002219D02*
X019140Y002219D01*
X019140Y002378D02*
X013850Y002378D01*
X013850Y002536D02*
X016366Y002536D01*
X016634Y002536D02*
X019140Y002536D01*
X019140Y002695D02*
X017845Y002695D01*
X017851Y002700D02*
X017893Y002759D01*
X017926Y002823D01*
X017949Y002892D01*
X017960Y002964D01*
X017960Y003000D01*
X017960Y003036D01*
X017949Y003108D01*
X017926Y003177D01*
X017893Y003241D01*
X017851Y003300D01*
X017800Y003351D01*
X017741Y003393D01*
X017677Y003426D01*
X017608Y003449D01*
X017536Y003460D01*
X017500Y003460D01*
X017500Y003000D01*
X017960Y003000D01*
X017500Y003000D01*
X017500Y003000D01*
X017500Y003000D01*
X017500Y002540D01*
X017536Y002540D01*
X017608Y002551D01*
X017677Y002574D01*
X017741Y002607D01*
X017800Y002649D01*
X017851Y002700D01*
X017936Y002853D02*
X019140Y002853D01*
X019140Y003012D02*
X017960Y003012D01*
X017928Y003170D02*
X019140Y003170D01*
X019140Y003329D02*
X017822Y003329D01*
X017500Y003329D02*
X017500Y003329D01*
X017500Y003460D02*
X017464Y003460D01*
X017392Y003449D01*
X017323Y003426D01*
X017259Y003393D01*
X017200Y003351D01*
X017149Y003300D01*
X017107Y003241D01*
X017074Y003177D01*
X017051Y003108D01*
X017040Y003036D01*
X017040Y003000D01*
X017500Y003000D01*
X017500Y003000D01*
X017500Y003000D01*
X017500Y003460D01*
X017500Y003170D02*
X017500Y003170D01*
X017500Y003012D02*
X017500Y003012D01*
X017500Y003000D02*
X017040Y003000D01*
X017040Y002964D01*
X017051Y002892D01*
X017074Y002823D01*
X017107Y002759D01*
X017149Y002700D01*
X017200Y002649D01*
X017259Y002607D01*
X017323Y002574D01*
X017392Y002551D01*
X017464Y002540D01*
X017500Y002540D01*
X017500Y003000D01*
X017500Y002853D02*
X017500Y002853D01*
X017500Y002695D02*
X017500Y002695D01*
X017155Y002695D02*
X016873Y002695D01*
X016959Y002853D02*
X017064Y002853D01*
X017040Y003012D02*
X016980Y003012D01*
X016949Y003170D02*
X017072Y003170D01*
X017178Y003329D02*
X016850Y003329D01*
X016750Y003487D02*
X019140Y003487D01*
X019140Y003646D02*
X016708Y003646D01*
X016051Y003170D02*
X014575Y003170D01*
X014524Y003012D02*
X016020Y003012D01*
X016041Y002853D02*
X013850Y002853D01*
X013850Y002695D02*
X016127Y002695D01*
X014575Y003804D02*
X019140Y003804D01*
X019140Y003963D02*
X014550Y003963D01*
X014575Y004597D02*
X019140Y004597D01*
X019140Y004755D02*
X016062Y004755D01*
X016235Y004914D02*
X019140Y004914D01*
X019140Y005072D02*
X016250Y005072D01*
X016250Y005231D02*
X019140Y005231D01*
X019140Y005389D02*
X016250Y005389D01*
X016250Y005548D02*
X019140Y005548D01*
X019140Y005706D02*
X016250Y005706D01*
X016295Y005865D02*
X017674Y005865D01*
X017718Y005820D02*
X017980Y005820D01*
X017980Y006480D01*
X018020Y006480D01*
X018020Y006520D01*
X018680Y006520D01*
X018680Y006782D01*
X018282Y007180D01*
X018020Y007180D01*
X018020Y006520D01*
X017980Y006520D01*
X017980Y007180D01*
X017718Y007180D01*
X017320Y006782D01*
X017320Y006520D01*
X017980Y006520D01*
X017980Y006480D01*
X017320Y006480D01*
X017320Y006218D01*
X017718Y005820D01*
X017980Y005865D02*
X018020Y005865D01*
X018020Y005820D02*
X018282Y005820D01*
X018680Y006218D01*
X018680Y006480D01*
X018020Y006480D01*
X018020Y005820D01*
X018020Y006023D02*
X017980Y006023D01*
X017980Y006182D02*
X018020Y006182D01*
X018020Y006340D02*
X017980Y006340D01*
X017980Y006499D02*
X016700Y006499D01*
X016693Y006657D02*
X017320Y006657D01*
X017354Y006816D02*
X016627Y006816D01*
X016516Y006974D02*
X017512Y006974D01*
X017671Y007133D02*
X016302Y007133D01*
X015698Y007133D02*
X015086Y007133D01*
X015245Y007291D02*
X019140Y007291D01*
X019140Y007133D02*
X018329Y007133D01*
X018488Y006974D02*
X019140Y006974D01*
X019140Y006816D02*
X018646Y006816D01*
X018680Y006657D02*
X019140Y006657D01*
X019140Y006499D02*
X018020Y006499D01*
X018020Y006657D02*
X017980Y006657D01*
X017980Y006816D02*
X018020Y006816D01*
X018020Y006974D02*
X017980Y006974D01*
X017980Y007133D02*
X018020Y007133D01*
X018680Y006340D02*
X019140Y006340D01*
X019140Y006182D02*
X018643Y006182D01*
X018485Y006023D02*
X019140Y006023D01*
X019140Y005865D02*
X018326Y005865D01*
X017515Y006023D02*
X016513Y006023D01*
X016626Y006182D02*
X017357Y006182D01*
X017320Y006340D02*
X016691Y006340D01*
X015750Y005706D02*
X013850Y005706D01*
X013850Y005865D02*
X015705Y005865D01*
X015487Y006023D02*
X014536Y006023D01*
X014575Y006182D02*
X015374Y006182D01*
X015309Y006340D02*
X014575Y006340D01*
X014575Y006499D02*
X015300Y006499D01*
X015307Y006657D02*
X014611Y006657D01*
X014769Y006816D02*
X015373Y006816D01*
X015484Y006974D02*
X014928Y006974D01*
X015403Y007450D02*
X019140Y007450D01*
X019140Y007608D02*
X015562Y007608D01*
X015720Y007767D02*
X019140Y007767D01*
X019140Y007925D02*
X015879Y007925D01*
X016037Y008084D02*
X019140Y008084D01*
X019140Y008242D02*
X016196Y008242D01*
X016354Y008401D02*
X019140Y008401D01*
X019140Y008559D02*
X016513Y008559D01*
X016671Y008718D02*
X017160Y008718D01*
X017060Y008818D02*
X017318Y008560D01*
X017500Y008560D01*
X017682Y008560D01*
X017940Y008818D01*
X017940Y009000D01*
X017940Y009182D01*
X017682Y009440D01*
X017500Y009440D01*
X017500Y009000D01*
X017500Y009000D01*
X017940Y009000D01*
X017500Y009000D01*
X017500Y009000D01*
X017500Y009000D01*
X017060Y009000D01*
X017060Y009182D01*
X017318Y009440D01*
X017500Y009440D01*
X017500Y009000D01*
X017500Y008560D01*
X017500Y009000D01*
X017500Y009000D01*
X017060Y009000D01*
X017060Y008818D01*
X017060Y008876D02*
X016830Y008876D01*
X016943Y009035D02*
X017060Y009035D01*
X017071Y009193D02*
X016950Y009193D01*
X016950Y009352D02*
X017229Y009352D01*
X016950Y009510D02*
X019140Y009510D01*
X019140Y009352D02*
X017771Y009352D01*
X017929Y009193D02*
X019140Y009193D01*
X019140Y009035D02*
X017940Y009035D01*
X017940Y008876D02*
X019140Y008876D01*
X019140Y008718D02*
X017840Y008718D01*
X017500Y008718D02*
X017500Y008718D01*
X017500Y008876D02*
X017500Y008876D01*
X017500Y009035D02*
X017500Y009035D01*
X017500Y009193D02*
X017500Y009193D01*
X017500Y009352D02*
X017500Y009352D01*
X016950Y009669D02*
X019140Y009669D01*
X019140Y009827D02*
X016950Y009827D01*
X016950Y009986D02*
X019140Y009986D01*
X019140Y010144D02*
X016950Y010144D01*
X016950Y010303D02*
X019140Y010303D01*
X019140Y010461D02*
X016950Y010461D01*
X016950Y010620D02*
X019140Y010620D01*
X019140Y010778D02*
X016950Y010778D01*
X016950Y010937D02*
X019140Y010937D01*
X019140Y011095D02*
X016950Y011095D01*
X017107Y011254D02*
X019140Y011254D01*
X019140Y011412D02*
X017266Y011412D01*
X016875Y011729D02*
X016750Y011729D01*
X016750Y011888D02*
X017034Y011888D01*
X017040Y012046D02*
X016750Y012046D01*
X016750Y012205D02*
X017054Y012205D01*
X017212Y012363D02*
X016750Y012363D01*
X016750Y012522D02*
X019140Y012522D01*
X019140Y012680D02*
X016750Y012680D01*
X016750Y012839D02*
X019140Y012839D01*
X019140Y012997D02*
X016750Y012997D01*
X016750Y013156D02*
X019140Y013156D01*
X019140Y013314D02*
X016750Y013314D01*
X016750Y013473D02*
X019140Y013473D01*
X019140Y013631D02*
X018000Y013631D01*
X018000Y013617D02*
X018000Y014383D01*
X017883Y014500D01*
X017117Y014500D01*
X017000Y014383D01*
X017000Y013617D01*
X017117Y013500D01*
X017883Y013500D01*
X018000Y013617D01*
X018000Y013790D02*
X019140Y013790D01*
X019140Y013948D02*
X018000Y013948D01*
X018000Y014107D02*
X019140Y014107D01*
X019140Y014265D02*
X018000Y014265D01*
X017959Y014424D02*
X019140Y014424D01*
X019140Y014582D02*
X017789Y014582D01*
X017948Y014741D02*
X019140Y014741D01*
X019140Y014899D02*
X018000Y014899D01*
X018000Y015058D02*
X019140Y015058D01*
X019140Y015216D02*
X017991Y015216D01*
X017833Y015375D02*
X019140Y015375D01*
X019140Y015533D02*
X017750Y015533D01*
X017899Y015692D02*
X019140Y015692D01*
X019140Y015850D02*
X018000Y015850D01*
X018000Y016009D02*
X019140Y016009D01*
X019140Y016167D02*
X018000Y016167D01*
X017882Y016326D02*
X019140Y016326D01*
X019140Y016484D02*
X017723Y016484D01*
X017277Y016484D02*
X014450Y016484D01*
X014450Y016326D02*
X016147Y016326D01*
X016020Y016167D02*
X014450Y016167D01*
X014450Y016009D02*
X016480Y016009D01*
X016520Y016009D02*
X017000Y016009D01*
X016980Y016020D02*
X016980Y016199D01*
X016699Y016480D01*
X016520Y016480D01*
X016520Y016020D01*
X016980Y016020D01*
X016980Y016167D02*
X017000Y016167D01*
X017118Y016326D02*
X016853Y016326D01*
X016520Y016326D02*
X016480Y016326D01*
X016480Y016167D02*
X016520Y016167D01*
X016980Y015850D02*
X017000Y015850D01*
X017043Y015250D02*
X017000Y015207D01*
X017000Y014793D01*
X017000Y015207D01*
X016957Y015250D01*
X017043Y015250D01*
X017009Y015216D02*
X016991Y015216D01*
X017000Y015058D02*
X017000Y015058D01*
X017000Y014899D02*
X017000Y014899D01*
X016948Y014741D02*
X017052Y014741D01*
X017211Y014582D02*
X016789Y014582D01*
X016707Y014500D02*
X016354Y014500D01*
X016354Y014500D01*
X016707Y014500D01*
X016784Y014424D02*
X017041Y014424D01*
X017000Y014265D02*
X016942Y014265D01*
X017000Y014107D02*
X017000Y014107D01*
X017000Y013948D02*
X017000Y013948D01*
X016997Y013790D02*
X017000Y013790D01*
X017000Y013631D02*
X016838Y013631D01*
X015550Y013631D02*
X014450Y013631D01*
X014450Y013473D02*
X015550Y013473D01*
X015550Y013314D02*
X014368Y013314D01*
X014209Y013156D02*
X015550Y013156D01*
X015550Y012997D02*
X015054Y012997D01*
X015100Y012839D02*
X015550Y012839D01*
X015550Y012680D02*
X015100Y012680D01*
X015072Y012522D02*
X015550Y012522D01*
X015550Y012363D02*
X015100Y012363D01*
X015100Y012205D02*
X015550Y012205D01*
X015550Y013790D02*
X014450Y013790D01*
X014450Y013948D02*
X015550Y013948D01*
X015550Y014107D02*
X014450Y014107D01*
X014450Y014265D02*
X015550Y014265D01*
X015550Y014424D02*
X014450Y014424D01*
X014450Y014582D02*
X015550Y014582D01*
X015550Y014741D02*
X014450Y014741D01*
X014450Y014899D02*
X015550Y014899D01*
X015604Y015058D02*
X014450Y015058D01*
X014450Y015216D02*
X015762Y015216D01*
X015921Y015375D02*
X014450Y015375D01*
X014450Y015533D02*
X016079Y015533D01*
X016130Y015692D02*
X014450Y015692D01*
X014450Y015850D02*
X016020Y015850D01*
X014450Y016643D02*
X019140Y016643D01*
X019140Y016801D02*
X014450Y016801D01*
X014450Y016960D02*
X019140Y016960D01*
X019140Y017118D02*
X014450Y017118D01*
X014450Y017277D02*
X019140Y017277D01*
X019140Y017435D02*
X014450Y017435D01*
X014450Y017594D02*
X019140Y017594D01*
X019140Y017752D02*
X014450Y017752D01*
X014450Y017911D02*
X019140Y017911D01*
X019140Y018069D02*
X014450Y018069D01*
X014450Y018228D02*
X015084Y018228D01*
X015082Y018231D02*
X015106Y018189D01*
X015139Y018156D01*
X015181Y018132D01*
X015226Y018120D01*
X015630Y018120D01*
X015630Y018530D01*
X015770Y018530D01*
X015770Y018670D01*
X016330Y018670D01*
X016330Y018924D01*
X016318Y018969D01*
X016294Y019011D01*
X016261Y019044D01*
X016219Y019068D01*
X016174Y019080D01*
X015770Y019080D01*
X015770Y018670D01*
X015630Y018670D01*
X015630Y019080D01*
X015226Y019080D01*
X015181Y019068D01*
X015139Y019044D01*
X015106Y019011D01*
X015082Y018969D01*
X015070Y018924D01*
X015070Y018670D01*
X015630Y018670D01*
X015630Y018530D01*
X015070Y018530D01*
X015070Y018276D01*
X015082Y018231D01*
X015070Y018386D02*
X014450Y018386D01*
X014450Y018545D02*
X015630Y018545D01*
X015770Y018545D02*
X018230Y018545D01*
X018230Y018530D02*
X017670Y018530D01*
X017670Y018276D01*
X017682Y018231D01*
X017706Y018189D01*
X017739Y018156D01*
X017781Y018132D01*
X017826Y018120D01*
X018230Y018120D01*
X018230Y018530D01*
X018370Y018530D01*
X018370Y018670D01*
X018930Y018670D01*
X018930Y018924D01*
X018918Y018969D01*
X018894Y019011D01*
X018861Y019044D01*
X018819Y019068D01*
X018774Y019080D01*
X018370Y019080D01*
X018370Y018670D01*
X018230Y018670D01*
X018230Y019080D01*
X017826Y019080D01*
X017781Y019068D01*
X017739Y019044D01*
X017706Y019011D01*
X017682Y018969D01*
X017670Y018924D01*
X017670Y018670D01*
X018230Y018670D01*
X018230Y018530D01*
X018370Y018530D02*
X018370Y018120D01*
X018774Y018120D01*
X018819Y018132D01*
X018861Y018156D01*
X018894Y018189D01*
X018918Y018231D01*
X018930Y018276D01*
X018930Y018530D01*
X018370Y018530D01*
X018370Y018545D02*
X019140Y018545D01*
X019140Y018703D02*
X018930Y018703D01*
X018930Y018862D02*
X019140Y018862D01*
X019140Y019020D02*
X018885Y019020D01*
X019140Y019179D02*
X014832Y019179D01*
X014991Y019337D02*
X019140Y019337D01*
X019140Y019496D02*
X015149Y019496D01*
X015308Y019654D02*
X019140Y019654D01*
X019140Y019813D02*
X015466Y019813D01*
X015050Y020130D02*
X014500Y020130D01*
X014500Y020288D02*
X015050Y020288D01*
X015050Y020447D02*
X014480Y020447D01*
X014402Y020605D02*
X015050Y020605D01*
X015050Y020764D02*
X014187Y020764D01*
X013813Y020764D02*
X013187Y020764D01*
X013099Y020800D02*
X013283Y020724D01*
X013424Y020583D01*
X013500Y020399D01*
X013500Y019601D01*
X013424Y019417D01*
X013283Y019276D01*
X013208Y019245D01*
X013505Y018948D01*
X013565Y018948D01*
X013682Y018831D01*
X013682Y018193D01*
X013565Y018076D01*
X013183Y018076D01*
X013156Y018102D01*
X013132Y018096D01*
X013000Y018096D01*
X012868Y018096D01*
X012844Y018102D01*
X012817Y018076D01*
X012435Y018076D01*
X012318Y018193D01*
X012318Y018831D01*
X012435Y018948D01*
X012450Y018948D01*
X012450Y019532D01*
X012445Y019516D01*
X012411Y019448D01*
X012366Y019387D01*
X012313Y019334D01*
X012252Y019289D01*
X012184Y019255D01*
X012112Y019232D01*
X012038Y019220D01*
X012020Y019220D01*
X012020Y019980D01*
X012020Y020020D01*
X011980Y020020D01*
X011980Y020780D01*
X011962Y020780D01*
X011888Y020768D01*
X011816Y020745D01*
X011748Y020711D01*
X011687Y020666D01*
X011634Y020613D01*
X011589Y020552D01*
X011555Y020484D01*
X011532Y020412D01*
X011520Y020338D01*
X011520Y020020D01*
X011980Y020020D01*
X011980Y019980D01*
X012020Y019980D01*
X012480Y019980D01*
X012480Y019822D01*
X012488Y019842D01*
X012500Y019854D01*
X012500Y020399D01*
X012576Y020583D01*
X012717Y020724D01*
X012901Y020800D01*
X013099Y020800D01*
X012813Y020764D02*
X012127Y020764D01*
X012112Y020768D02*
X012038Y020780D01*
X012020Y020780D01*
X012020Y020020D01*
X012480Y020020D01*
X012480Y020338D01*
X012468Y020412D01*
X012445Y020484D01*
X012411Y020552D01*
X012366Y020613D01*
X012313Y020666D01*
X012252Y020711D01*
X012184Y020745D01*
X012112Y020768D01*
X012020Y020764D02*
X011980Y020764D01*
X011873Y020764D02*
X000230Y020764D01*
X000230Y020922D02*
X019140Y020922D01*
X019140Y020764D02*
X018950Y020764D01*
X018950Y020605D02*
X019140Y020605D01*
X019140Y020447D02*
X018950Y020447D01*
X018950Y020288D02*
X019140Y020288D01*
X019140Y020130D02*
X018950Y020130D01*
X018904Y019971D02*
X019140Y019971D01*
X019140Y021081D02*
X000230Y021081D01*
X000230Y021239D02*
X019140Y021239D01*
X017696Y019971D02*
X016304Y019971D01*
X016350Y020130D02*
X017650Y020130D01*
X017650Y020764D02*
X016350Y020764D01*
X014917Y019971D02*
X014500Y019971D01*
X014500Y019813D02*
X014759Y019813D01*
X014600Y019654D02*
X014500Y019654D01*
X014674Y019020D02*
X015115Y019020D01*
X015070Y018862D02*
X014515Y018862D01*
X014450Y018703D02*
X015070Y018703D01*
X015630Y018703D02*
X015770Y018703D01*
X015770Y018862D02*
X015630Y018862D01*
X015630Y019020D02*
X015770Y019020D01*
X015770Y018530D02*
X016330Y018530D01*
X016330Y018276D01*
X016318Y018231D01*
X016294Y018189D01*
X016261Y018156D01*
X016219Y018132D01*
X016174Y018120D01*
X015770Y018120D01*
X015770Y018530D01*
X015770Y018386D02*
X015630Y018386D01*
X015630Y018228D02*
X015770Y018228D01*
X016316Y018228D02*
X017684Y018228D01*
X017670Y018386D02*
X016330Y018386D01*
X016330Y018703D02*
X017670Y018703D01*
X017670Y018862D02*
X016330Y018862D01*
X016285Y019020D02*
X017715Y019020D01*
X018230Y019020D02*
X018370Y019020D01*
X018370Y018862D02*
X018230Y018862D01*
X018230Y018703D02*
X018370Y018703D01*
X018370Y018386D02*
X018230Y018386D01*
X018230Y018228D02*
X018370Y018228D01*
X018916Y018228D02*
X019140Y018228D01*
X019140Y018386D02*
X018930Y018386D01*
X013950Y015222D02*
X013950Y013604D01*
X012258Y011912D01*
X012188Y011842D01*
X012150Y011750D01*
X012150Y011750D01*
X011533Y011750D01*
X011533Y011750D01*
X011533Y011932D01*
X011533Y011932D01*
X011533Y011750D01*
X011533Y011750D01*
X011533Y011750D01*
X012147Y011750D01*
X012147Y011892D01*
X012134Y011938D01*
X012111Y011979D01*
X012103Y011986D01*
X012167Y012049D01*
X012167Y012451D01*
X012117Y012500D01*
X012167Y012549D01*
X012167Y012951D01*
X012049Y013068D01*
X011850Y013068D01*
X011850Y013596D01*
X013424Y015170D01*
X013898Y015170D01*
X013950Y015222D01*
X013950Y015216D02*
X013944Y015216D01*
X013950Y015058D02*
X013311Y015058D01*
X013153Y014899D02*
X013950Y014899D01*
X013950Y014741D02*
X012994Y014741D01*
X012836Y014582D02*
X013950Y014582D01*
X013950Y014424D02*
X012677Y014424D01*
X012519Y014265D02*
X013950Y014265D01*
X013950Y014107D02*
X012360Y014107D01*
X012202Y013948D02*
X013950Y013948D01*
X013950Y013790D02*
X012043Y013790D01*
X011885Y013631D02*
X013950Y013631D01*
X013819Y013473D02*
X011850Y013473D01*
X011850Y013314D02*
X013660Y013314D01*
X013502Y013156D02*
X011850Y013156D01*
X012120Y012997D02*
X013343Y012997D01*
X013185Y012839D02*
X012167Y012839D01*
X012167Y012680D02*
X013026Y012680D01*
X012868Y012522D02*
X012139Y012522D01*
X012167Y012363D02*
X012709Y012363D01*
X012551Y012205D02*
X012167Y012205D01*
X012164Y012046D02*
X012392Y012046D01*
X012234Y011888D02*
X012147Y011888D01*
X011533Y011888D02*
X011533Y011888D01*
X010950Y011750D02*
X010950Y011750D01*
X010900Y011729D02*
X002055Y011729D01*
X002055Y011888D02*
X010920Y011888D01*
X010903Y012046D02*
X002055Y012046D01*
X002055Y012205D02*
X010900Y012205D01*
X010900Y012363D02*
X002030Y012363D01*
X001924Y012577D02*
X001965Y012601D01*
X001999Y012634D01*
X002023Y012675D01*
X002035Y012721D01*
X002035Y012982D01*
X001577Y012982D01*
X001577Y012565D01*
X001879Y012565D01*
X001924Y012577D01*
X002024Y012680D02*
X010900Y012680D01*
X010900Y012839D02*
X002035Y012839D01*
X002035Y013137D02*
X002035Y013399D01*
X002023Y013444D01*
X001999Y013485D01*
X001965Y013519D01*
X001924Y013543D01*
X001879Y013555D01*
X001577Y013555D01*
X001577Y013137D01*
X001423Y013137D01*
X001423Y013555D01*
X001121Y013555D01*
X001076Y013543D01*
X001035Y013519D01*
X001001Y013485D01*
X000977Y013444D01*
X000965Y013399D01*
X000965Y013137D01*
X001423Y013137D01*
X001423Y012982D01*
X001577Y012982D01*
X001577Y013137D01*
X002035Y013137D01*
X002035Y013156D02*
X009465Y013156D01*
X009465Y013101D02*
X009477Y013056D01*
X009501Y013015D01*
X009535Y012981D01*
X009576Y012957D01*
X009621Y012945D01*
X009923Y012945D01*
X009923Y013363D01*
X009465Y013363D01*
X009465Y013101D01*
X009519Y012997D02*
X001577Y012997D01*
X001423Y012997D02*
X000230Y012997D01*
X000230Y012839D02*
X000965Y012839D01*
X000965Y012721D02*
X000977Y012675D01*
X001001Y012634D01*
X001035Y012601D01*
X001076Y012577D01*
X001121Y012565D01*
X001423Y012565D01*
X001423Y012982D01*
X000965Y012982D01*
X000965Y012721D01*
X000976Y012680D02*
X000230Y012680D01*
X000230Y012522D02*
X010928Y012522D01*
X010946Y012997D02*
X010481Y012997D01*
X010535Y013156D02*
X010991Y013156D01*
X010832Y013314D02*
X010535Y013314D01*
X010674Y013473D02*
X010077Y013473D01*
X009923Y013473D02*
X002006Y013473D01*
X002035Y013314D02*
X009465Y013314D01*
X009465Y013631D02*
X000230Y013631D01*
X000230Y013473D02*
X000994Y013473D01*
X000965Y013314D02*
X000230Y013314D01*
X000230Y013156D02*
X000965Y013156D01*
X001423Y013156D02*
X001577Y013156D01*
X001577Y013314D02*
X001423Y013314D01*
X001423Y013473D02*
X001577Y013473D01*
X001577Y012839D02*
X001423Y012839D01*
X001423Y012680D02*
X001577Y012680D01*
X000970Y012363D02*
X000230Y012363D01*
X000230Y012205D02*
X000945Y012205D01*
X000945Y012046D02*
X000230Y012046D01*
X000230Y011888D02*
X000945Y011888D01*
X000945Y011729D02*
X000230Y011729D01*
X000230Y011571D02*
X000945Y011571D01*
X001634Y011412D02*
X000230Y011412D01*
X000230Y011254D02*
X001750Y011254D01*
X001750Y011095D02*
X000230Y011095D01*
X000230Y010937D02*
X001750Y010937D01*
X001750Y010778D02*
X000230Y010778D01*
X000230Y010620D02*
X001750Y010620D01*
X001750Y010461D02*
X000230Y010461D01*
X000230Y010303D02*
X001750Y010303D01*
X001750Y010144D02*
X000230Y010144D01*
X000230Y009986D02*
X001750Y009986D01*
X001750Y009827D02*
X000230Y009827D01*
X000230Y009669D02*
X001750Y009669D01*
X001750Y009510D02*
X000230Y009510D01*
X000230Y009352D02*
X001750Y009352D01*
X001750Y009193D02*
X000230Y009193D01*
X000230Y009035D02*
X001750Y009035D01*
X001750Y008876D02*
X000230Y008876D01*
X000230Y008718D02*
X001750Y008718D01*
X001750Y008559D02*
X000230Y008559D01*
X000230Y008401D02*
X001750Y008401D01*
X001750Y008242D02*
X000230Y008242D01*
X000230Y008084D02*
X001750Y008084D01*
X001750Y007925D02*
X000230Y007925D01*
X000230Y007767D02*
X001616Y007767D01*
X001540Y007608D02*
X000230Y007608D01*
X000230Y007450D02*
X001049Y007450D01*
X000890Y007291D02*
X000230Y007291D01*
X000230Y007133D02*
X000790Y007133D01*
X000790Y006974D02*
X000230Y006974D01*
X000230Y006816D02*
X000790Y006816D01*
X000942Y006657D02*
X000230Y006657D01*
X000230Y006499D02*
X001560Y006499D01*
X001560Y006500D02*
X001560Y006318D01*
X001818Y006060D01*
X002000Y006060D01*
X002182Y006060D01*
X002440Y006318D01*
X002440Y006500D01*
X002000Y006500D01*
X002000Y006500D01*
X002000Y006060D01*
X002000Y006500D01*
X002000Y006500D01*
X002000Y006500D01*
X001560Y006500D01*
X001558Y006657D02*
X001560Y006657D01*
X001560Y006340D02*
X000230Y006340D01*
X000230Y006182D02*
X001696Y006182D01*
X002000Y006182D02*
X002000Y006182D01*
X002000Y006340D02*
X002000Y006340D01*
X002000Y006499D02*
X002000Y006499D01*
X002304Y006182D02*
X005360Y006182D01*
X005360Y006023D02*
X000230Y006023D01*
X000230Y005865D02*
X004311Y005865D01*
X004250Y005706D02*
X000230Y005706D01*
X000230Y005548D02*
X004250Y005548D01*
X004238Y005389D02*
X000230Y005389D01*
X000230Y005231D02*
X004098Y005231D01*
X004040Y005072D02*
X000230Y005072D01*
X000230Y004914D02*
X004040Y004914D01*
X004104Y004755D02*
X000230Y004755D01*
X000230Y004597D02*
X004272Y004597D01*
X004355Y004438D02*
X000230Y004438D01*
X000230Y004280D02*
X004129Y004280D01*
X004052Y004121D02*
X000230Y004121D01*
X000230Y003963D02*
X004040Y003963D01*
X004083Y003804D02*
X000230Y003804D01*
X000230Y003646D02*
X004204Y003646D01*
X004796Y003646D02*
X005750Y003646D01*
X005750Y003804D02*
X004917Y003804D01*
X004960Y003963D02*
X005750Y003963D01*
X005750Y004121D02*
X004975Y004121D01*
X005133Y004280D02*
X005750Y004280D01*
X005750Y004438D02*
X005292Y004438D01*
X005450Y004597D02*
X005750Y004597D01*
X005750Y004755D02*
X005609Y004755D01*
X004743Y004597D02*
X004728Y004597D01*
X005750Y003487D02*
X000230Y003487D01*
X000230Y003329D02*
X005750Y003329D01*
X007646Y000793D02*
X007878Y000793D01*
X008122Y000793D02*
X008254Y000793D01*
X008412Y000634D02*
X007488Y000634D01*
X008571Y000476D02*
X000230Y000476D01*
X000230Y000634D02*
X002312Y000634D01*
X002250Y000793D02*
X000230Y000793D01*
X000230Y000951D02*
X002250Y000951D01*
X001683Y001110D02*
X001288Y001110D01*
X001199Y001020D02*
X001480Y001301D01*
X001480Y001480D01*
X001020Y001480D01*
X001020Y001520D01*
X001480Y001520D01*
X001480Y001699D01*
X001199Y001980D01*
X001020Y001980D01*
X001020Y001520D01*
X000980Y001520D01*
X000980Y001980D01*
X000801Y001980D01*
X000520Y001699D01*
X000520Y001520D01*
X000980Y001520D01*
X000980Y001480D01*
X001020Y001480D01*
X001020Y001020D01*
X001199Y001020D01*
X001020Y001110D02*
X000980Y001110D01*
X000980Y001020D02*
X000980Y001480D01*
X000520Y001480D01*
X000520Y001301D01*
X000801Y001020D01*
X000980Y001020D01*
X000980Y001268D02*
X001020Y001268D01*
X001020Y001427D02*
X000980Y001427D01*
X000980Y001585D02*
X001020Y001585D01*
X001020Y001744D02*
X000980Y001744D01*
X000980Y001902D02*
X001020Y001902D01*
X001277Y001902D02*
X001695Y001902D01*
X001793Y002000D02*
X002146Y002000D01*
X002146Y002000D01*
X001793Y002000D01*
X001732Y002061D02*
X001268Y002061D01*
X001426Y002219D02*
X001574Y002219D01*
X001500Y002293D02*
X001500Y002646D01*
X001500Y002646D01*
X001500Y002293D01*
X001500Y002378D02*
X001500Y002378D01*
X001500Y002536D02*
X001500Y002536D01*
X001158Y003012D02*
X000230Y003012D01*
X000230Y003170D02*
X001316Y003170D01*
X000646Y002853D02*
X000230Y002853D01*
X000230Y002695D02*
X000500Y002695D01*
X000500Y002536D02*
X000230Y002536D01*
X000230Y002378D02*
X000500Y002378D01*
X000574Y002219D02*
X000230Y002219D01*
X000230Y002061D02*
X000732Y002061D01*
X000723Y001902D02*
X000230Y001902D01*
X000230Y001744D02*
X000565Y001744D01*
X000520Y001585D02*
X000230Y001585D01*
X000230Y001427D02*
X000520Y001427D01*
X000553Y001268D02*
X000230Y001268D01*
X000230Y001110D02*
X000712Y001110D01*
X001447Y001268D02*
X001525Y001268D01*
X001500Y001427D02*
X001480Y001427D01*
X001480Y001585D02*
X001500Y001585D01*
X001536Y001744D02*
X001435Y001744D01*
X002440Y006340D02*
X005380Y006340D01*
X005360Y006499D02*
X002440Y006499D01*
X002440Y006657D02*
X005360Y006657D01*
X005360Y006816D02*
X002307Y006816D01*
X002460Y007608D02*
X005360Y007608D01*
X005360Y007767D02*
X002384Y007767D01*
X002250Y007925D02*
X006088Y007925D01*
X006088Y008084D02*
X002250Y008084D01*
X002250Y008242D02*
X006088Y008242D01*
X006088Y008401D02*
X002250Y008401D01*
X002250Y008559D02*
X006124Y008559D01*
X006142Y008718D02*
X006529Y008718D01*
X005858Y008718D02*
X002250Y008718D01*
X002250Y008876D02*
X005617Y008876D01*
X005527Y009035D02*
X002250Y009035D01*
X002250Y009193D02*
X005500Y009193D01*
X005500Y009352D02*
X002250Y009352D01*
X002250Y009510D02*
X005500Y009510D01*
X005500Y009669D02*
X002250Y009669D01*
X002250Y009827D02*
X005500Y009827D01*
X005536Y009986D02*
X002250Y009986D01*
X002250Y010144D02*
X005637Y010144D01*
X006200Y010303D02*
X002250Y010303D01*
X002250Y010461D02*
X009607Y010461D01*
X009449Y010303D02*
X006800Y010303D01*
X007363Y010144D02*
X007637Y010144D01*
X007536Y009986D02*
X007464Y009986D01*
X007500Y009899D02*
X007500Y009354D01*
X007500Y009354D01*
X007500Y009899D01*
X007500Y009827D02*
X007500Y009827D01*
X007500Y009669D02*
X007500Y009669D01*
X007500Y009510D02*
X007500Y009510D01*
X008500Y009510D02*
X008500Y009510D01*
X008500Y009352D02*
X008500Y009352D01*
X008500Y009193D02*
X008500Y009193D01*
X008500Y009101D02*
X008500Y009899D01*
X008500Y009101D01*
X008450Y008980D01*
X008450Y008640D01*
X008750Y008640D01*
X008750Y008762D01*
X008717Y008776D01*
X008576Y008917D01*
X008500Y009101D01*
X008473Y009035D02*
X008527Y009035D01*
X008450Y008876D02*
X008617Y008876D01*
X008750Y008718D02*
X008450Y008718D01*
X008500Y009669D02*
X008500Y009669D01*
X008500Y009827D02*
X008500Y009827D01*
X008464Y009986D02*
X008536Y009986D01*
X008637Y010144D02*
X008363Y010144D01*
X009766Y010620D02*
X002250Y010620D01*
X002250Y010778D02*
X009924Y010778D01*
X010083Y010937D02*
X002250Y010937D01*
X002250Y011095D02*
X010241Y011095D01*
X010400Y011254D02*
X002250Y011254D01*
X002250Y011412D02*
X010558Y011412D01*
X010717Y011571D02*
X002183Y011571D01*
X000230Y013790D02*
X009468Y013790D01*
X009501Y014107D02*
X000230Y014107D01*
X000230Y014265D02*
X009445Y014265D01*
X009445Y014424D02*
X000230Y014424D01*
X000230Y014582D02*
X009445Y014582D01*
X009445Y014741D02*
X000230Y014741D01*
X000230Y014899D02*
X009445Y014899D01*
X009545Y015058D02*
X000230Y015058D01*
X000230Y015216D02*
X009750Y015216D01*
X009750Y015375D02*
X000230Y015375D01*
X000230Y015533D02*
X009750Y015533D01*
X009750Y015692D02*
X000230Y015692D01*
X000230Y015850D02*
X009750Y015850D01*
X009750Y016009D02*
X000230Y016009D01*
X000230Y016167D02*
X009750Y016167D01*
X009750Y016326D02*
X000230Y016326D01*
X000230Y016484D02*
X001698Y016484D01*
X001805Y016377D02*
X001440Y016742D01*
X001440Y016932D01*
X001995Y016932D01*
X002131Y016932D01*
X002131Y017068D01*
X002686Y017068D01*
X002686Y017258D01*
X002321Y017623D01*
X002131Y017623D01*
X002131Y017068D01*
X001995Y017068D01*
X001995Y017623D01*
X001805Y017623D01*
X001440Y017258D01*
X001440Y017068D01*
X001995Y017068D01*
X001995Y016932D01*
X001995Y016377D01*
X001805Y016377D01*
X001995Y016484D02*
X002131Y016484D01*
X002131Y016377D02*
X002321Y016377D01*
X002686Y016742D01*
X002686Y016932D01*
X002131Y016932D01*
X002131Y016377D01*
X002131Y016643D02*
X001995Y016643D01*
X001995Y016801D02*
X002131Y016801D01*
X002131Y016960D02*
X009294Y016960D01*
X009294Y017118D02*
X002686Y017118D01*
X002667Y017277D02*
X009304Y017277D01*
X009463Y017435D02*
X002509Y017435D01*
X002350Y017594D02*
X009621Y017594D01*
X010253Y017594D02*
X012318Y017594D01*
X012318Y017752D02*
X000230Y017752D01*
X000230Y017594D02*
X001776Y017594D01*
X001995Y017594D02*
X002131Y017594D01*
X002131Y017435D02*
X001995Y017435D01*
X001995Y017277D02*
X002131Y017277D01*
X002131Y017118D02*
X001995Y017118D01*
X001995Y016960D02*
X000230Y016960D01*
X000230Y017118D02*
X001440Y017118D01*
X001459Y017277D02*
X000230Y017277D01*
X000230Y017435D02*
X001617Y017435D01*
X001440Y016801D02*
X000230Y016801D01*
X000230Y016643D02*
X001540Y016643D01*
X002428Y016484D02*
X009544Y016484D01*
X009385Y016643D02*
X002586Y016643D01*
X002686Y016801D02*
X009294Y016801D01*
X010250Y016326D02*
X012985Y016326D01*
X012985Y016484D02*
X010330Y016484D01*
X010489Y016643D02*
X012985Y016643D01*
X013073Y016801D02*
X010580Y016801D01*
X010580Y016960D02*
X013250Y016960D01*
X013117Y017118D02*
X012883Y017118D01*
X012934Y017169D02*
X012817Y017052D01*
X012435Y017052D01*
X012318Y017169D01*
X012318Y017807D01*
X012435Y017924D01*
X012817Y017924D01*
X012934Y017807D01*
X012934Y017169D01*
X012934Y017277D02*
X013066Y017277D01*
X013066Y017435D02*
X012934Y017435D01*
X012934Y017594D02*
X013066Y017594D01*
X013066Y017752D02*
X012934Y017752D01*
X012831Y017911D02*
X013169Y017911D01*
X013000Y018096D02*
X013000Y018512D01*
X013000Y018746D01*
X013000Y018746D01*
X013000Y018512D01*
X013000Y018512D01*
X012934Y018512D01*
X012934Y018512D01*
X013000Y018512D01*
X013000Y018512D01*
X013066Y018512D01*
X013000Y018512D01*
X013000Y018512D01*
X013000Y018512D01*
X013000Y018096D01*
X013000Y018228D02*
X013000Y018228D01*
X013000Y018386D02*
X013000Y018386D01*
X013066Y018512D02*
X013066Y018512D01*
X013000Y018545D02*
X013000Y018545D01*
X013000Y018703D02*
X013000Y018703D01*
X013434Y019020D02*
X013750Y019020D01*
X013750Y018862D02*
X013652Y018862D01*
X013682Y018703D02*
X013750Y018703D01*
X013750Y018545D02*
X013682Y018545D01*
X013682Y018386D02*
X013750Y018386D01*
X013750Y018228D02*
X013682Y018228D01*
X013750Y018069D02*
X000230Y018069D01*
X000230Y017911D02*
X012421Y017911D01*
X012318Y018228D02*
X000230Y018228D01*
X000230Y018386D02*
X012318Y018386D01*
X012318Y018545D02*
X000230Y018545D01*
X000230Y018703D02*
X012318Y018703D01*
X012348Y018862D02*
X000230Y018862D01*
X000230Y019020D02*
X012450Y019020D01*
X012450Y019179D02*
X000230Y019179D01*
X000230Y019337D02*
X011684Y019337D01*
X011687Y019334D02*
X011748Y019289D01*
X011816Y019255D01*
X011888Y019232D01*
X011962Y019220D01*
X011980Y019220D01*
X011980Y019980D01*
X011520Y019980D01*
X011520Y019662D01*
X011532Y019588D01*
X011555Y019516D01*
X011589Y019448D01*
X011634Y019387D01*
X011687Y019334D01*
X011565Y019496D02*
X000230Y019496D01*
X000230Y019654D02*
X011521Y019654D01*
X011520Y019813D02*
X000230Y019813D01*
X000230Y019971D02*
X011520Y019971D01*
X011520Y020130D02*
X000230Y020130D01*
X000230Y020288D02*
X011520Y020288D01*
X011543Y020447D02*
X000230Y020447D01*
X000230Y020605D02*
X011628Y020605D01*
X011980Y020605D02*
X012020Y020605D01*
X012020Y020447D02*
X011980Y020447D01*
X011980Y020288D02*
X012020Y020288D01*
X012020Y020130D02*
X011980Y020130D01*
X011980Y019971D02*
X012020Y019971D01*
X012020Y019813D02*
X011980Y019813D01*
X011980Y019654D02*
X012020Y019654D01*
X012020Y019496D02*
X011980Y019496D01*
X011980Y019337D02*
X012020Y019337D01*
X012316Y019337D02*
X012450Y019337D01*
X012435Y019496D02*
X012450Y019496D01*
X012480Y019971D02*
X012500Y019971D01*
X012500Y020130D02*
X012480Y020130D01*
X012480Y020288D02*
X012500Y020288D01*
X012520Y020447D02*
X012457Y020447D01*
X012372Y020605D02*
X012598Y020605D01*
X013402Y020605D02*
X013598Y020605D01*
X013520Y020447D02*
X013480Y020447D01*
X013500Y020288D02*
X013500Y020288D01*
X013500Y020130D02*
X013500Y020130D01*
X013500Y019971D02*
X013500Y019971D01*
X013500Y019813D02*
X013500Y019813D01*
X013500Y019654D02*
X013500Y019654D01*
X013457Y019496D02*
X013543Y019496D01*
X013656Y019337D02*
X013344Y019337D01*
X013275Y019179D02*
X013750Y019179D01*
X013750Y017911D02*
X013579Y017911D01*
X013682Y017752D02*
X013750Y017752D01*
X013750Y017594D02*
X013682Y017594D01*
X013715Y017435D02*
X013750Y017435D01*
X013750Y017277D02*
X013750Y017277D01*
X013750Y017118D02*
X013750Y017118D01*
X013750Y016960D02*
X013750Y016960D01*
X013750Y016830D02*
X013750Y016830D01*
X012985Y016167D02*
X010250Y016167D01*
X010250Y016009D02*
X013012Y016009D01*
X012985Y015850D02*
X010250Y015850D01*
X010250Y015692D02*
X012985Y015692D01*
X012985Y015533D02*
X010250Y015533D01*
X010250Y015375D02*
X012921Y015375D01*
X012762Y015216D02*
X010250Y015216D01*
X010455Y015058D02*
X012604Y015058D01*
X012445Y014899D02*
X010555Y014899D01*
X010555Y014741D02*
X012287Y014741D01*
X012128Y014582D02*
X010555Y014582D01*
X010555Y014424D02*
X011970Y014424D01*
X011811Y014265D02*
X010589Y014265D01*
X010747Y014107D02*
X011653Y014107D01*
X011494Y013948D02*
X010906Y013948D01*
X011064Y013790D02*
X011366Y013790D01*
X011350Y013631D02*
X011223Y013631D01*
X010198Y013948D02*
X000230Y013948D01*
X001451Y007450D02*
X001540Y007450D01*
X005913Y006972D02*
X005913Y006972D01*
X006240Y006972D01*
X006240Y006870D01*
X006260Y006850D01*
X006260Y006794D01*
X006312Y006742D01*
X006412Y006642D01*
X006450Y006550D01*
X006450Y006452D01*
X006450Y006452D01*
X006450Y007245D01*
X006329Y007245D01*
X006260Y007274D01*
X006260Y007095D01*
X006240Y007075D01*
X006240Y006972D01*
X005913Y006972D01*
X006240Y006974D02*
X006450Y006974D01*
X006450Y006816D02*
X006260Y006816D01*
X006397Y006657D02*
X006450Y006657D01*
X006450Y006499D02*
X006450Y006499D01*
X006450Y007133D02*
X006260Y007133D01*
X005832Y006343D02*
X005832Y006343D01*
X005810Y006343D02*
X005810Y006338D01*
X005810Y006343D01*
X005810Y006343D01*
X005810Y006340D02*
X005810Y006340D01*
X005810Y006338D02*
X005810Y006338D01*
X005810Y006347D02*
X005810Y006347D01*
X008350Y006340D02*
X008740Y006340D01*
X008740Y006182D02*
X008350Y006182D01*
X008350Y006050D02*
X008350Y006548D01*
X008401Y006599D01*
X008455Y006729D01*
X008455Y006871D01*
X008401Y007001D01*
X008321Y007081D01*
X008350Y007150D01*
X008350Y007448D01*
X008401Y007499D01*
X008455Y007629D01*
X008455Y007740D01*
X008550Y007740D01*
X008550Y006950D01*
X008588Y006858D01*
X008658Y006788D01*
X008750Y006750D01*
X008760Y006750D01*
X008760Y006657D01*
X008425Y006657D01*
X008455Y006816D02*
X008631Y006816D01*
X008550Y006974D02*
X008412Y006974D01*
X008343Y007133D02*
X008550Y007133D01*
X008550Y007291D02*
X008350Y007291D01*
X008352Y007450D02*
X008550Y007450D01*
X008550Y007608D02*
X008446Y007608D01*
X008760Y006657D02*
X009190Y006657D01*
X008760Y006657D01*
X008760Y006555D01*
X008740Y006535D01*
X008740Y006050D01*
X008350Y006050D01*
X008350Y006499D02*
X008740Y006499D01*
X009190Y006657D02*
X009190Y006657D01*
X009190Y006657D01*
X009620Y006657D01*
X009950Y006657D01*
X009950Y006650D02*
X009950Y006350D01*
X009640Y006350D01*
X009640Y006535D01*
X009620Y006555D01*
X009620Y006657D01*
X009620Y006760D01*
X009640Y006780D01*
X009640Y007050D01*
X010196Y007050D01*
X009988Y006842D01*
X009950Y006750D01*
X009950Y006650D01*
X009950Y006499D02*
X009640Y006499D01*
X009620Y006657D02*
X009190Y006657D01*
X009640Y006816D02*
X009977Y006816D01*
X010120Y006974D02*
X009640Y006974D01*
X010450Y006596D02*
X010450Y006050D01*
X010412Y005958D01*
X010404Y005950D01*
X010481Y005950D01*
X010501Y005985D01*
X010535Y006019D01*
X010576Y006043D01*
X010621Y006055D01*
X010923Y006055D01*
X010923Y005637D01*
X011077Y005637D01*
X011077Y006055D01*
X011379Y006055D01*
X011424Y006043D01*
X011450Y006028D01*
X011450Y007545D01*
X011399Y007545D01*
X010450Y006596D01*
X010511Y006657D02*
X011450Y006657D01*
X011450Y006499D02*
X010450Y006499D01*
X010450Y006340D02*
X011450Y006340D01*
X011450Y006182D02*
X010450Y006182D01*
X010439Y006023D02*
X010542Y006023D01*
X010923Y006023D02*
X011077Y006023D01*
X011077Y005865D02*
X010923Y005865D01*
X010923Y005706D02*
X011077Y005706D01*
X011077Y005482D02*
X010923Y005482D01*
X010923Y005065D01*
X010789Y005065D01*
X010898Y004955D01*
X011438Y004955D01*
X011450Y004943D01*
X011450Y005092D01*
X011424Y005077D01*
X011379Y005065D01*
X011077Y005065D01*
X011077Y005482D01*
X011077Y005389D02*
X010923Y005389D01*
X010923Y005231D02*
X011077Y005231D01*
X011077Y005072D02*
X010923Y005072D01*
X011405Y005072D02*
X011450Y005072D01*
X011450Y006816D02*
X010669Y006816D01*
X010828Y006974D02*
X011450Y006974D01*
X011450Y007133D02*
X010986Y007133D01*
X011145Y007291D02*
X011450Y007291D01*
X011450Y007450D02*
X011303Y007450D01*
X012528Y007374D02*
X013712Y008558D01*
X013750Y008650D01*
X013750Y008789D01*
X013816Y008755D01*
X013888Y008732D01*
X013962Y008720D01*
X013980Y008720D01*
X013980Y009480D01*
X014020Y009480D01*
X014020Y008720D01*
X014038Y008720D01*
X014112Y008732D01*
X014184Y008755D01*
X014250Y008789D01*
X014250Y007904D01*
X013370Y007023D01*
X013338Y007055D01*
X012699Y007055D01*
X012655Y007099D01*
X012655Y007171D01*
X012601Y007301D01*
X012528Y007374D01*
X012603Y007450D02*
X013796Y007450D01*
X013954Y007608D02*
X012762Y007608D01*
X012920Y007767D02*
X014113Y007767D01*
X014250Y007925D02*
X013079Y007925D01*
X013237Y008084D02*
X014250Y008084D01*
X014250Y008242D02*
X013396Y008242D01*
X013554Y008401D02*
X014250Y008401D01*
X014250Y008559D02*
X013712Y008559D01*
X013750Y008718D02*
X014250Y008718D01*
X014020Y008876D02*
X013980Y008876D01*
X013980Y009035D02*
X014020Y009035D01*
X014020Y009193D02*
X013980Y009193D01*
X013980Y009352D02*
X014020Y009352D01*
X014020Y009520D02*
X013980Y009520D01*
X013980Y010280D01*
X013962Y010280D01*
X013888Y010268D01*
X013816Y010245D01*
X013750Y010211D01*
X013750Y011450D01*
X013833Y011450D01*
X013833Y011049D01*
X013951Y010932D01*
X014250Y010932D01*
X014250Y010211D01*
X014184Y010245D01*
X014112Y010268D01*
X014038Y010280D01*
X014020Y010280D01*
X014020Y009520D01*
X014020Y009669D02*
X013980Y009669D01*
X013980Y009827D02*
X014020Y009827D01*
X014020Y009986D02*
X013980Y009986D01*
X013980Y010144D02*
X014020Y010144D01*
X014250Y010303D02*
X013750Y010303D01*
X013750Y010461D02*
X014250Y010461D01*
X014250Y010620D02*
X013750Y010620D01*
X013750Y010778D02*
X014250Y010778D01*
X013946Y010937D02*
X013750Y010937D01*
X013750Y011095D02*
X013833Y011095D01*
X013833Y011254D02*
X013750Y011254D01*
X013750Y011412D02*
X013833Y011412D01*
X013637Y007291D02*
X012605Y007291D01*
X012655Y007133D02*
X013479Y007133D01*
X014465Y005548D02*
X015750Y005548D01*
X015750Y005389D02*
X014575Y005389D01*
X013850Y004438D02*
X019140Y004438D01*
X019140Y004280D02*
X013850Y004280D01*
X013850Y004121D02*
X019140Y004121D01*
X013350Y002696D02*
X013350Y002027D01*
X013336Y002047D01*
X013287Y002096D01*
X013231Y002136D01*
X013169Y002168D01*
X013103Y002189D01*
X013035Y002200D01*
X013000Y002200D01*
X013000Y001500D01*
X013000Y001500D01*
X013000Y002200D01*
X012965Y002200D01*
X012897Y002189D01*
X012831Y002168D01*
X012811Y002158D01*
X013350Y002696D01*
X013350Y002695D02*
X013348Y002695D01*
X013350Y002536D02*
X013190Y002536D01*
X013031Y002378D02*
X013350Y002378D01*
X013350Y002219D02*
X012873Y002219D01*
X013000Y002061D02*
X013000Y002061D01*
X013000Y001902D02*
X013000Y001902D01*
X013000Y001744D02*
X013000Y001744D01*
X013000Y001585D02*
X013000Y001585D01*
X013000Y001500D02*
X013000Y001500D01*
X012560Y001500D01*
X012560Y001795D01*
X012571Y001863D01*
X012592Y001929D01*
X012617Y001978D01*
X012550Y001950D01*
X012419Y001950D01*
X012460Y001851D01*
X012460Y001148D01*
X012390Y000979D01*
X012261Y000850D01*
X012260Y000850D01*
X012796Y000850D01*
X012769Y000864D01*
X012713Y000904D01*
X012664Y000953D01*
X012624Y001009D01*
X012592Y001071D01*
X012571Y001137D01*
X012560Y001205D01*
X012560Y001500D01*
X013000Y001500D01*
X012560Y001427D02*
X012460Y001427D01*
X012460Y001585D02*
X012560Y001585D01*
X012560Y001744D02*
X012460Y001744D01*
X012439Y001902D02*
X012583Y001902D01*
X012560Y001268D02*
X012460Y001268D01*
X012444Y001110D02*
X012580Y001110D01*
X012667Y000951D02*
X012362Y000951D01*
X013322Y002061D02*
X013350Y002061D01*
X017721Y011571D02*
X019140Y011571D01*
X019140Y011729D02*
X017880Y011729D01*
X017960Y011888D02*
X019140Y011888D01*
X019140Y012046D02*
X017960Y012046D01*
X017946Y012205D02*
X019140Y012205D01*
X019140Y012363D02*
X017788Y012363D01*
X012369Y017118D02*
X010580Y017118D01*
X010570Y017277D02*
X012318Y017277D01*
X012318Y017435D02*
X010411Y017435D01*
X010077Y013790D02*
X009923Y013790D01*
X009923Y013631D02*
X010077Y013631D01*
X010077Y013314D02*
X009923Y013314D01*
X009923Y013156D02*
X010077Y013156D01*
X010077Y012997D02*
X009923Y012997D01*
M02*
