G75*
G70*
%OFA0B0*%
%FSLAX24Y24*%
%IPPOS*%
%LPD*%
%AMOC8*
5,1,8,0,0,1.08239X$1,22.5*
%
%ADD10R,0.0580X0.0300*%
%ADD11R,0.0300X0.0580*%
%ADD12R,0.0946X0.0316*%
%ADD13R,0.0680X0.0680*%
%ADD14OC8,0.0680*%
%ADD15C,0.0600*%
%ADD16OC8,0.0966*%
%ADD17OC8,0.0600*%
%ADD18R,0.0790X0.0710*%
%ADD19C,0.0600*%
%ADD20R,0.0980X0.0680*%
%ADD21C,0.0680*%
%ADD22R,0.0297X0.0552*%
%ADD23C,0.0640*%
%ADD24R,0.0710X0.0790*%
%ADD25C,0.1080*%
%ADD26OC8,0.1080*%
%ADD27R,0.0710X0.0592*%
%ADD28C,0.0390*%
D10*
X005810Y005398D03*
X005810Y005713D03*
X005810Y006028D03*
X005810Y006343D03*
X005810Y006657D03*
X005810Y006972D03*
X005810Y007287D03*
X005810Y007602D03*
X009190Y007602D03*
X009190Y007287D03*
X009190Y006972D03*
X009190Y006657D03*
X009190Y006343D03*
X009190Y006028D03*
X009190Y005713D03*
X009190Y005398D03*
D11*
X008602Y004810D03*
X008287Y004810D03*
X007972Y004810D03*
X007657Y004810D03*
X007343Y004810D03*
X007028Y004810D03*
X006713Y004810D03*
X006398Y004810D03*
X006398Y008190D03*
X006713Y008190D03*
X007028Y008190D03*
X007343Y008190D03*
X007657Y008190D03*
X007972Y008190D03*
X008287Y008190D03*
X008602Y008190D03*
D12*
X011533Y011250D03*
X011533Y011750D03*
X011533Y012250D03*
X011533Y012750D03*
X014467Y012750D03*
X014467Y012250D03*
X014467Y011750D03*
X014467Y011250D03*
D13*
X017500Y014000D03*
D14*
X001000Y001500D03*
X001000Y002500D03*
X002000Y002500D03*
X002000Y001500D03*
X003000Y001500D03*
X003000Y002500D03*
X004000Y002500D03*
X004000Y001500D03*
X016500Y014000D03*
X016500Y015000D03*
X016500Y016000D03*
X017500Y016000D03*
X017500Y015000D03*
D15*
X013000Y001760D02*
X013000Y001240D01*
X012000Y001240D02*
X012000Y001760D01*
X011000Y001760D02*
X011000Y001240D01*
X010000Y001240D02*
X010000Y001760D01*
X009000Y001760D02*
X009000Y001240D01*
X008000Y001240D02*
X008000Y001760D01*
X007000Y001760D02*
X007000Y001240D01*
X006000Y001240D02*
X006000Y001760D01*
D16*
X002063Y017000D03*
X009937Y017000D03*
D17*
X017500Y012000D03*
X017500Y009000D03*
X002000Y007500D03*
X001250Y007000D03*
X002000Y006500D03*
D18*
X001500Y011940D03*
X001500Y013060D03*
X010000Y013440D03*
X010000Y014560D03*
X011000Y005560D03*
X011000Y004440D03*
D19*
X004500Y004000D03*
X004500Y005000D03*
D20*
X015700Y018600D03*
X015700Y020400D03*
X018300Y020400D03*
X018300Y018600D03*
D21*
X014000Y019700D02*
X014000Y020300D01*
X013000Y020300D02*
X013000Y019700D01*
X012000Y019700D02*
X012000Y020300D01*
X012000Y009800D02*
X012000Y009200D01*
X011000Y009200D02*
X011000Y009800D01*
X010000Y009800D02*
X010000Y009200D01*
X009000Y009200D02*
X009000Y009800D01*
X008000Y009800D02*
X008000Y009200D01*
X007000Y009200D02*
X007000Y009800D01*
X006000Y009800D02*
X006000Y009200D01*
X013000Y009200D02*
X013000Y009800D01*
X014000Y009800D02*
X014000Y009200D01*
X015000Y009200D02*
X015000Y009800D01*
D22*
X013374Y017488D03*
X012626Y017488D03*
X012626Y018512D03*
X013000Y018512D03*
X013374Y018512D03*
D23*
X016500Y003000D03*
X017500Y003000D03*
D24*
X014060Y003500D03*
X012940Y003500D03*
X012940Y005000D03*
X014060Y005000D03*
X014060Y006500D03*
X012940Y006500D03*
D25*
X016000Y006500D03*
D26*
X018000Y006500D03*
D27*
X013500Y015626D03*
X013500Y016374D03*
D28*
X013800Y012700D03*
X013800Y012300D03*
X012400Y010900D03*
X011800Y010900D03*
X011400Y007900D03*
X012300Y007100D03*
X010500Y006500D03*
X008500Y006600D03*
X008100Y006800D03*
X008100Y007700D03*
X007700Y007700D03*
X007300Y007700D03*
X006400Y007600D03*
X006700Y006200D03*
X007700Y005300D03*
X007400Y004300D03*
X007000Y002800D03*
X008800Y003100D03*
X011600Y003100D03*
X006500Y010100D03*
M02*
