G75*
G70*
%OFA0B0*%
%FSLAX24Y24*%
%IPPOS*%
%LPD*%
%AMOC8*
5,1,8,0,0,1.08239X$1,22.5*
%
%ADD10R,0.0680X0.0680*%
%ADD11OC8,0.0680*%
%ADD12C,0.0600*%
%ADD13OC8,0.0966*%
%ADD14OC8,0.0600*%
%ADD15C,0.0600*%
%ADD16C,0.0680*%
%ADD17C,0.0640*%
%ADD18C,0.1080*%
%ADD19OC8,0.1080*%
%ADD20C,0.0390*%
D10*
X017500Y014000D03*
D11*
X001000Y001500D03*
X001000Y002500D03*
X002000Y002500D03*
X002000Y001500D03*
X003000Y001500D03*
X003000Y002500D03*
X004000Y002500D03*
X004000Y001500D03*
X016500Y014000D03*
X016500Y015000D03*
X016500Y016000D03*
X017500Y016000D03*
X017500Y015000D03*
D12*
X013000Y001760D02*
X013000Y001240D01*
X012000Y001240D02*
X012000Y001760D01*
X011000Y001760D02*
X011000Y001240D01*
X010000Y001240D02*
X010000Y001760D01*
X009000Y001760D02*
X009000Y001240D01*
X008000Y001240D02*
X008000Y001760D01*
X007000Y001760D02*
X007000Y001240D01*
X006000Y001240D02*
X006000Y001760D01*
D13*
X002063Y017000D03*
X009937Y017000D03*
D14*
X017500Y012000D03*
X017500Y009000D03*
X002000Y007500D03*
X001250Y007000D03*
X002000Y006500D03*
D15*
X004500Y005000D03*
X004500Y004000D03*
D16*
X006000Y009200D02*
X006000Y009800D01*
X007000Y009800D02*
X007000Y009200D01*
X008000Y009200D02*
X008000Y009800D01*
X009000Y009800D02*
X009000Y009200D01*
X010000Y009200D02*
X010000Y009800D01*
X011000Y009800D02*
X011000Y009200D01*
X012000Y009200D02*
X012000Y009800D01*
X013000Y009800D02*
X013000Y009200D01*
X014000Y009200D02*
X014000Y009800D01*
X015000Y009800D02*
X015000Y009200D01*
X014000Y019700D02*
X014000Y020300D01*
X013000Y020300D02*
X013000Y019700D01*
X012000Y019700D02*
X012000Y020300D01*
D17*
X016500Y003000D03*
X017500Y003000D03*
D18*
X016000Y006500D03*
D19*
X018000Y006500D03*
D20*
X013800Y012300D03*
X013800Y012700D03*
X012400Y010900D03*
X011800Y010900D03*
X011400Y007900D03*
X012300Y007100D03*
X010500Y006500D03*
X008500Y006600D03*
X008100Y006800D03*
X008100Y007700D03*
X007700Y007700D03*
X007300Y007700D03*
X006400Y007600D03*
X006700Y006200D03*
X007700Y005300D03*
X007400Y004300D03*
X007000Y002800D03*
X008800Y003100D03*
X011600Y003100D03*
X006500Y010100D03*
M02*
