G75*
G70*
%OFA0B0*%
%FSLAX24Y24*%
%IPPOS*%
%LPD*%
%AMOC8*
5,1,8,0,0,1.08239X$1,22.5*
%
%ADD10C,0.0000*%
%ADD11C,0.0060*%
%ADD12R,0.0390X0.0180*%
%ADD13R,0.0180X0.0390*%
%ADD14C,0.0030*%
%ADD15C,0.0080*%
%ADD16C,0.0250*%
%ADD17R,0.0598X0.0193*%
%ADD18C,0.0070*%
%ADD19C,0.0100*%
%ADD20R,0.0200X0.0200*%
%ADD21C,0.0050*%
%ADD22R,0.0100X0.0200*%
%ADD23C,0.0090*%
%ADD24R,0.0690X0.0290*%
%ADD25C,0.0040*%
%ADD26C,0.0160*%
%ADD27R,0.0230X0.0160*%
%ADD28C,0.0020*%
%ADD29R,0.0197X0.0256*%
%ADD30C,0.0010*%
%ADD31R,0.0290X0.0690*%
%ADD32C,0.0240*%
%ADD33R,0.0240X0.0100*%
%ADD34R,0.0250X0.0900*%
%ADD35R,0.0560X0.0140*%
D10*
X000000Y000000D02*
X000000Y021496D01*
X019370Y021496D01*
X019370Y000000D01*
X000000Y000000D01*
D11*
X000750Y001000D02*
X000500Y001250D01*
X000500Y002750D01*
X000750Y003000D01*
X001250Y003000D01*
X001500Y002750D01*
X001750Y003000D01*
X002250Y003000D01*
X002500Y002750D01*
X002750Y003000D01*
X003250Y003000D01*
X003500Y002750D01*
X003750Y003000D01*
X004250Y003000D01*
X004500Y002750D01*
X004500Y001250D01*
X004250Y001000D01*
X003750Y001000D01*
X003500Y001250D01*
X003250Y001000D01*
X002750Y001000D01*
X002500Y001250D01*
X002250Y001000D01*
X001750Y001000D01*
X001500Y001250D01*
X001250Y001000D01*
X000750Y001000D01*
X001550Y004100D02*
X003700Y004100D01*
X003700Y004150D01*
X003700Y004850D01*
X003700Y004900D01*
X001550Y004900D01*
X001533Y004898D01*
X001516Y004894D01*
X001500Y004887D01*
X001486Y004877D01*
X001473Y004864D01*
X001463Y004850D01*
X001456Y004834D01*
X001452Y004817D01*
X001450Y004800D01*
X001450Y004200D01*
X001452Y004183D01*
X001456Y004166D01*
X001463Y004150D01*
X001473Y004136D01*
X001486Y004123D01*
X001500Y004113D01*
X001516Y004106D01*
X001533Y004102D01*
X001550Y004100D01*
X002200Y004500D02*
X002400Y004500D01*
X002400Y004700D01*
X002550Y004700D02*
X002550Y004300D01*
X002700Y004300D01*
X002700Y004700D01*
X002550Y004700D01*
X002400Y004500D02*
X002400Y004300D01*
X002850Y004300D02*
X002850Y004500D01*
X002850Y004700D01*
X002850Y004500D02*
X003050Y004500D01*
X003700Y004150D02*
X003850Y004150D01*
X003850Y004850D01*
X003700Y004850D01*
X006120Y005120D02*
X006120Y007740D01*
X006260Y007880D01*
X008880Y007880D01*
X008880Y005120D01*
X006120Y005120D01*
X006279Y007580D02*
X006281Y007603D01*
X006287Y007626D01*
X006296Y007647D01*
X006309Y007667D01*
X006325Y007684D01*
X006343Y007698D01*
X006363Y007709D01*
X006385Y007717D01*
X006408Y007721D01*
X006432Y007721D01*
X006455Y007717D01*
X006477Y007709D01*
X006497Y007698D01*
X006515Y007684D01*
X006531Y007667D01*
X006544Y007647D01*
X006553Y007626D01*
X006559Y007603D01*
X006561Y007580D01*
X006559Y007557D01*
X006553Y007534D01*
X006544Y007513D01*
X006531Y007493D01*
X006515Y007476D01*
X006497Y007462D01*
X006477Y007451D01*
X006455Y007443D01*
X006432Y007439D01*
X006408Y007439D01*
X006385Y007443D01*
X006363Y007451D01*
X006343Y007462D01*
X006325Y007476D01*
X006309Y007493D01*
X006296Y007513D01*
X006287Y007534D01*
X006281Y007557D01*
X006279Y007580D01*
X006250Y009000D02*
X005750Y009000D01*
X005500Y009250D01*
X005500Y009750D01*
X005750Y010000D01*
X006250Y010000D01*
X006500Y009750D01*
X006750Y010000D01*
X007250Y010000D01*
X007500Y009750D01*
X007750Y010000D01*
X008250Y010000D01*
X008500Y009750D01*
X008750Y010000D01*
X009250Y010000D01*
X009500Y009750D01*
X009750Y010000D01*
X010250Y010000D01*
X010500Y009750D01*
X010750Y010000D01*
X011250Y010000D01*
X011500Y009750D01*
X011750Y010000D01*
X012250Y010000D01*
X012500Y009750D01*
X012750Y010000D01*
X013250Y010000D01*
X013500Y009750D01*
X013750Y010000D01*
X014250Y010000D01*
X014500Y009750D01*
X014750Y010000D01*
X015250Y010000D01*
X015500Y009750D01*
X015500Y009250D01*
X015250Y009000D01*
X014750Y009000D01*
X014500Y009250D01*
X014250Y009000D01*
X013750Y009000D01*
X013500Y009250D01*
X013250Y009000D01*
X012750Y009000D01*
X012500Y009250D01*
X012250Y009000D01*
X011750Y009000D01*
X011500Y009250D01*
X011250Y009000D01*
X010750Y009000D01*
X010500Y009250D01*
X010250Y009000D01*
X009750Y009000D01*
X009500Y009250D01*
X009250Y009000D01*
X008750Y009000D01*
X008500Y009250D01*
X008250Y009000D01*
X007750Y009000D01*
X007500Y009250D01*
X007250Y009000D01*
X006750Y009000D01*
X006500Y009250D01*
X006250Y009000D01*
X001820Y012125D02*
X001820Y012880D01*
X001180Y012880D02*
X001180Y012125D01*
X009680Y013620D02*
X009680Y014375D01*
X010320Y014375D02*
X010320Y013620D01*
X013250Y015720D02*
X013250Y016280D01*
X013750Y016280D02*
X013750Y015720D01*
X013560Y017681D02*
X012440Y017681D01*
X012477Y017681D01*
X012440Y017681D02*
X012440Y018319D01*
X012477Y018319D01*
X012440Y018319D02*
X013560Y018319D01*
X013523Y018319D01*
X013560Y018319D02*
X013560Y017681D01*
X013523Y017681D01*
X013206Y017681D02*
X012794Y017681D01*
X012794Y018319D02*
X012832Y018319D01*
X013168Y018319D02*
X013206Y018319D01*
X013250Y019500D02*
X012750Y019500D01*
X012500Y019750D01*
X012250Y019500D01*
X011750Y019500D01*
X011500Y019750D01*
X011500Y020250D01*
X011750Y020500D01*
X012250Y020500D01*
X012500Y020250D01*
X012750Y020500D01*
X013250Y020500D01*
X013500Y020250D01*
X013750Y020500D01*
X014250Y020500D01*
X014500Y020250D01*
X014500Y019750D01*
X014250Y019500D01*
X013750Y019500D01*
X013500Y019750D01*
X013250Y019500D01*
X015700Y019200D02*
X015800Y019200D01*
X015800Y019100D01*
X015800Y018500D01*
X016000Y018300D01*
X016150Y018300D01*
X016500Y018300D01*
X017450Y018300D01*
X017850Y018300D01*
X018000Y018300D01*
X018200Y018500D01*
X018200Y019100D01*
X018200Y019200D01*
X018300Y019200D01*
X018300Y019800D01*
X018200Y019800D01*
X018200Y019900D01*
X018200Y020500D01*
X018000Y020700D01*
X017850Y020700D01*
X017500Y020700D01*
X016500Y020700D01*
X016150Y020700D01*
X016000Y020700D01*
X015800Y020500D01*
X015800Y019900D01*
X015800Y019800D01*
X015700Y019800D01*
X015700Y019200D01*
X016050Y019300D02*
X016050Y019000D01*
X015950Y018650D02*
X015952Y018678D01*
X015958Y018705D01*
X015967Y018731D01*
X015980Y018756D01*
X015997Y018779D01*
X016016Y018799D01*
X016038Y018816D01*
X016062Y018830D01*
X016088Y018840D01*
X016115Y018847D01*
X016143Y018850D01*
X016171Y018849D01*
X016198Y018844D01*
X016225Y018835D01*
X016250Y018823D01*
X016273Y018808D01*
X016294Y018789D01*
X016312Y018768D01*
X016327Y018744D01*
X016338Y018718D01*
X016346Y018692D01*
X016350Y018664D01*
X016350Y018636D01*
X016346Y018608D01*
X016338Y018582D01*
X016327Y018556D01*
X016312Y018532D01*
X016294Y018511D01*
X016273Y018492D01*
X016250Y018477D01*
X016225Y018465D01*
X016198Y018456D01*
X016171Y018451D01*
X016143Y018450D01*
X016115Y018453D01*
X016088Y018460D01*
X016062Y018470D01*
X016038Y018484D01*
X016016Y018501D01*
X015997Y018521D01*
X015980Y018544D01*
X015967Y018569D01*
X015958Y018595D01*
X015952Y018622D01*
X015950Y018650D01*
X016500Y018650D02*
X017500Y018650D01*
X017650Y018700D02*
X017652Y018728D01*
X017658Y018755D01*
X017667Y018781D01*
X017680Y018806D01*
X017697Y018829D01*
X017716Y018849D01*
X017738Y018866D01*
X017762Y018880D01*
X017788Y018890D01*
X017815Y018897D01*
X017843Y018900D01*
X017871Y018899D01*
X017898Y018894D01*
X017925Y018885D01*
X017950Y018873D01*
X017973Y018858D01*
X017994Y018839D01*
X018012Y018818D01*
X018027Y018794D01*
X018038Y018768D01*
X018046Y018742D01*
X018050Y018714D01*
X018050Y018686D01*
X018046Y018658D01*
X018038Y018632D01*
X018027Y018606D01*
X018012Y018582D01*
X017994Y018561D01*
X017973Y018542D01*
X017950Y018527D01*
X017925Y018515D01*
X017898Y018506D01*
X017871Y018501D01*
X017843Y018500D01*
X017815Y018503D01*
X017788Y018510D01*
X017762Y018520D01*
X017738Y018534D01*
X017716Y018551D01*
X017697Y018571D01*
X017680Y018594D01*
X017667Y018619D01*
X017658Y018645D01*
X017652Y018672D01*
X017650Y018700D01*
X016900Y019500D02*
X016902Y019520D01*
X016908Y019538D01*
X016917Y019556D01*
X016929Y019571D01*
X016944Y019583D01*
X016962Y019592D01*
X016980Y019598D01*
X017000Y019600D01*
X017020Y019598D01*
X017038Y019592D01*
X017056Y019583D01*
X017071Y019571D01*
X017083Y019556D01*
X017092Y019538D01*
X017098Y019520D01*
X017100Y019500D01*
X017098Y019480D01*
X017092Y019462D01*
X017083Y019444D01*
X017071Y019429D01*
X017056Y019417D01*
X017038Y019408D01*
X017020Y019402D01*
X017000Y019400D01*
X016980Y019402D01*
X016962Y019408D01*
X016944Y019417D01*
X016929Y019429D01*
X016917Y019444D01*
X016908Y019462D01*
X016902Y019480D01*
X016900Y019500D01*
X016300Y019500D02*
X016302Y019552D01*
X016308Y019604D01*
X016318Y019656D01*
X016331Y019706D01*
X016348Y019756D01*
X016369Y019804D01*
X016394Y019850D01*
X016422Y019894D01*
X016453Y019936D01*
X016487Y019976D01*
X016524Y020013D01*
X016564Y020047D01*
X016606Y020078D01*
X016650Y020106D01*
X016696Y020131D01*
X016744Y020152D01*
X016794Y020169D01*
X016844Y020182D01*
X016896Y020192D01*
X016948Y020198D01*
X017000Y020200D01*
X017052Y020198D01*
X017104Y020192D01*
X017156Y020182D01*
X017206Y020169D01*
X017256Y020152D01*
X017304Y020131D01*
X017350Y020106D01*
X017394Y020078D01*
X017436Y020047D01*
X017476Y020013D01*
X017513Y019976D01*
X017547Y019936D01*
X017578Y019894D01*
X017606Y019850D01*
X017631Y019804D01*
X017652Y019756D01*
X017669Y019706D01*
X017682Y019656D01*
X017692Y019604D01*
X017698Y019552D01*
X017700Y019500D01*
X017698Y019448D01*
X017692Y019396D01*
X017682Y019344D01*
X017669Y019294D01*
X017652Y019244D01*
X017631Y019196D01*
X017606Y019150D01*
X017578Y019106D01*
X017547Y019064D01*
X017513Y019024D01*
X017476Y018987D01*
X017436Y018953D01*
X017394Y018922D01*
X017350Y018894D01*
X017304Y018869D01*
X017256Y018848D01*
X017206Y018831D01*
X017156Y018818D01*
X017104Y018808D01*
X017052Y018802D01*
X017000Y018800D01*
X016948Y018802D01*
X016896Y018808D01*
X016844Y018818D01*
X016794Y018831D01*
X016744Y018848D01*
X016696Y018869D01*
X016650Y018894D01*
X016606Y018922D01*
X016564Y018953D01*
X016524Y018987D01*
X016487Y019024D01*
X016453Y019064D01*
X016422Y019106D01*
X016394Y019150D01*
X016369Y019196D01*
X016348Y019244D01*
X016331Y019294D01*
X016318Y019344D01*
X016308Y019396D01*
X016302Y019448D01*
X016300Y019500D01*
X016150Y019350D02*
X016050Y019700D01*
X016050Y020000D01*
X015950Y020350D02*
X015952Y020378D01*
X015958Y020405D01*
X015967Y020431D01*
X015980Y020456D01*
X015997Y020479D01*
X016016Y020499D01*
X016038Y020516D01*
X016062Y020530D01*
X016088Y020540D01*
X016115Y020547D01*
X016143Y020550D01*
X016171Y020549D01*
X016198Y020544D01*
X016225Y020535D01*
X016250Y020523D01*
X016273Y020508D01*
X016294Y020489D01*
X016312Y020468D01*
X016327Y020444D01*
X016338Y020418D01*
X016346Y020392D01*
X016350Y020364D01*
X016350Y020336D01*
X016346Y020308D01*
X016338Y020282D01*
X016327Y020256D01*
X016312Y020232D01*
X016294Y020211D01*
X016273Y020192D01*
X016250Y020177D01*
X016225Y020165D01*
X016198Y020156D01*
X016171Y020151D01*
X016143Y020150D01*
X016115Y020153D01*
X016088Y020160D01*
X016062Y020170D01*
X016038Y020184D01*
X016016Y020201D01*
X015997Y020221D01*
X015980Y020244D01*
X015967Y020269D01*
X015958Y020295D01*
X015952Y020322D01*
X015950Y020350D01*
X016500Y020400D02*
X017500Y020400D01*
X017650Y020350D02*
X017652Y020378D01*
X017658Y020405D01*
X017667Y020431D01*
X017680Y020456D01*
X017697Y020479D01*
X017716Y020499D01*
X017738Y020516D01*
X017762Y020530D01*
X017788Y020540D01*
X017815Y020547D01*
X017843Y020550D01*
X017871Y020549D01*
X017898Y020544D01*
X017925Y020535D01*
X017950Y020523D01*
X017973Y020508D01*
X017994Y020489D01*
X018012Y020468D01*
X018027Y020444D01*
X018038Y020418D01*
X018046Y020392D01*
X018050Y020364D01*
X018050Y020336D01*
X018046Y020308D01*
X018038Y020282D01*
X018027Y020256D01*
X018012Y020232D01*
X017994Y020211D01*
X017973Y020192D01*
X017950Y020177D01*
X017925Y020165D01*
X017898Y020156D01*
X017871Y020151D01*
X017843Y020150D01*
X017815Y020153D01*
X017788Y020160D01*
X017762Y020170D01*
X017738Y020184D01*
X017716Y020201D01*
X017697Y020221D01*
X017680Y020244D01*
X017667Y020269D01*
X017658Y020295D01*
X017652Y020322D01*
X017650Y020350D01*
X017850Y011750D02*
X017150Y011750D01*
X017133Y011748D01*
X017116Y011744D01*
X017100Y011737D01*
X017086Y011727D01*
X017073Y011714D01*
X017063Y011700D01*
X017056Y011684D01*
X017052Y011667D01*
X017050Y011650D01*
X017050Y011500D01*
X017100Y011450D01*
X017100Y009550D01*
X017050Y009500D01*
X017050Y009350D01*
X017052Y009333D01*
X017056Y009316D01*
X017063Y009300D01*
X017073Y009286D01*
X017086Y009273D01*
X017100Y009263D01*
X017116Y009256D01*
X017133Y009252D01*
X017150Y009250D01*
X017850Y009250D01*
X017867Y009252D01*
X017884Y009256D01*
X017900Y009263D01*
X017914Y009273D01*
X017927Y009286D01*
X017937Y009300D01*
X017944Y009316D01*
X017948Y009333D01*
X017950Y009350D01*
X017950Y009500D01*
X017900Y009550D01*
X017900Y011450D01*
X017950Y011500D01*
X017950Y011650D01*
X017948Y011667D01*
X017944Y011684D01*
X017937Y011700D01*
X017927Y011714D01*
X017914Y011727D01*
X017900Y011737D01*
X017884Y011744D01*
X017867Y011748D01*
X017850Y011750D01*
X015700Y007300D02*
X015700Y007000D01*
X015550Y007150D02*
X015850Y007150D01*
X016350Y006500D02*
X016550Y006500D01*
X016650Y006500D01*
X016650Y006950D01*
X016900Y006950D01*
X016900Y006050D01*
X016650Y006050D01*
X016650Y006500D01*
X015250Y006500D02*
X015252Y006586D01*
X015258Y006672D01*
X015269Y006757D01*
X015284Y006841D01*
X015302Y006925D01*
X015325Y007008D01*
X015352Y007090D01*
X015383Y007170D01*
X015418Y007248D01*
X015457Y007325D01*
X015499Y007400D01*
X015545Y007472D01*
X015594Y007542D01*
X015647Y007610D01*
X015703Y007675D01*
X015763Y007737D01*
X015825Y007797D01*
X015890Y007853D01*
X015958Y007906D01*
X016028Y007955D01*
X016100Y008001D01*
X016175Y008043D01*
X016252Y008082D01*
X016330Y008117D01*
X016410Y008148D01*
X016492Y008175D01*
X016575Y008198D01*
X016659Y008216D01*
X016743Y008231D01*
X016828Y008242D01*
X016914Y008248D01*
X017000Y008250D01*
X017086Y008248D01*
X017172Y008242D01*
X017257Y008231D01*
X017341Y008216D01*
X017425Y008198D01*
X017508Y008175D01*
X017590Y008148D01*
X017670Y008117D01*
X017748Y008082D01*
X017825Y008043D01*
X017900Y008001D01*
X017972Y007955D01*
X018042Y007906D01*
X018110Y007853D01*
X018175Y007797D01*
X018237Y007737D01*
X018297Y007675D01*
X018353Y007610D01*
X018406Y007542D01*
X018455Y007472D01*
X018501Y007400D01*
X018543Y007325D01*
X018582Y007248D01*
X018617Y007170D01*
X018648Y007090D01*
X018675Y007008D01*
X018698Y006925D01*
X018716Y006841D01*
X018731Y006757D01*
X018742Y006672D01*
X018748Y006586D01*
X018750Y006500D01*
X018748Y006414D01*
X018742Y006328D01*
X018731Y006243D01*
X018716Y006159D01*
X018698Y006075D01*
X018675Y005992D01*
X018648Y005910D01*
X018617Y005830D01*
X018582Y005752D01*
X018543Y005675D01*
X018501Y005600D01*
X018455Y005528D01*
X018406Y005458D01*
X018353Y005390D01*
X018297Y005325D01*
X018237Y005263D01*
X018175Y005203D01*
X018110Y005147D01*
X018042Y005094D01*
X017972Y005045D01*
X017900Y004999D01*
X017825Y004957D01*
X017748Y004918D01*
X017670Y004883D01*
X017590Y004852D01*
X017508Y004825D01*
X017425Y004802D01*
X017341Y004784D01*
X017257Y004769D01*
X017172Y004758D01*
X017086Y004752D01*
X017000Y004750D01*
X016914Y004752D01*
X016828Y004758D01*
X016743Y004769D01*
X016659Y004784D01*
X016575Y004802D01*
X016492Y004825D01*
X016410Y004852D01*
X016330Y004883D01*
X016252Y004918D01*
X016175Y004957D01*
X016100Y004999D01*
X016028Y005045D01*
X015958Y005094D01*
X015890Y005147D01*
X015825Y005203D01*
X015763Y005263D01*
X015703Y005325D01*
X015647Y005390D01*
X015594Y005458D01*
X015545Y005528D01*
X015499Y005600D01*
X015457Y005675D01*
X015418Y005752D01*
X015383Y005830D01*
X015352Y005910D01*
X015325Y005992D01*
X015302Y006075D01*
X015284Y006159D01*
X015269Y006243D01*
X015258Y006328D01*
X015252Y006414D01*
X015250Y006500D01*
X013880Y006180D02*
X013125Y006180D01*
X013125Y006820D02*
X013880Y006820D01*
X013880Y005320D02*
X013125Y005320D01*
X013125Y004680D02*
X013880Y004680D01*
X013880Y003820D02*
X013125Y003820D01*
X013125Y003180D02*
X013880Y003180D01*
X013500Y002000D02*
X012600Y002000D01*
X012500Y001900D01*
X012400Y002000D01*
X011600Y002000D01*
X011500Y001900D01*
X011400Y002000D01*
X010600Y002000D01*
X010500Y001900D01*
X010400Y002000D01*
X009600Y002000D01*
X009500Y001900D01*
X009400Y002000D01*
X008600Y002000D01*
X008500Y001900D01*
X008400Y002000D01*
X007600Y002000D01*
X007500Y001900D01*
X007400Y002000D01*
X006600Y002000D01*
X006500Y001900D01*
X006400Y002000D01*
X005500Y002000D01*
X005500Y001000D01*
X006400Y001000D01*
X006500Y001100D01*
X006600Y001000D01*
X007400Y001000D01*
X007500Y001100D01*
X007600Y001000D01*
X008400Y001000D01*
X008500Y001100D01*
X008600Y001000D01*
X009400Y001000D01*
X009500Y001100D01*
X009600Y001000D01*
X010400Y001000D01*
X010500Y001100D01*
X010600Y001000D01*
X011400Y001000D01*
X011500Y001100D01*
X011600Y001000D01*
X012400Y001000D01*
X012500Y001100D01*
X012600Y001000D01*
X013500Y001000D01*
X013500Y002000D01*
X013200Y001700D02*
X013100Y001700D01*
X013100Y001800D01*
X012900Y001800D01*
X012900Y001700D01*
X012800Y001700D01*
X012800Y001300D01*
X012900Y001300D01*
X012900Y001200D01*
X013100Y001200D01*
X013100Y001300D01*
X013200Y001300D01*
X013200Y001700D01*
X012200Y001700D02*
X012200Y001300D01*
X012100Y001300D01*
X012100Y001200D01*
X011900Y001200D01*
X011900Y001300D01*
X011800Y001300D01*
X011800Y001700D01*
X011900Y001700D01*
X011900Y001800D01*
X012100Y001800D01*
X012100Y001700D01*
X012200Y001700D01*
X011200Y001700D02*
X011200Y001300D01*
X011100Y001300D01*
X011100Y001200D01*
X010900Y001200D01*
X010900Y001300D01*
X010800Y001300D01*
X010800Y001700D01*
X010900Y001700D01*
X010900Y001800D01*
X011100Y001800D01*
X011100Y001700D01*
X011200Y001700D01*
X010200Y001700D02*
X010200Y001300D01*
X010100Y001300D01*
X010100Y001200D01*
X009900Y001200D01*
X009900Y001300D01*
X009800Y001300D01*
X009800Y001700D01*
X009900Y001700D01*
X009900Y001800D01*
X010100Y001800D01*
X010100Y001700D01*
X010200Y001700D01*
X009200Y001700D02*
X009200Y001300D01*
X009100Y001300D01*
X009100Y001200D01*
X008900Y001200D01*
X008900Y001300D01*
X008800Y001300D01*
X008800Y001700D01*
X008900Y001700D01*
X008900Y001800D01*
X009100Y001800D01*
X009100Y001700D01*
X009200Y001700D01*
X008200Y001700D02*
X008200Y001300D01*
X008100Y001300D01*
X008100Y001200D01*
X007900Y001200D01*
X007900Y001300D01*
X007800Y001300D01*
X007800Y001700D01*
X007900Y001700D01*
X007900Y001800D01*
X008100Y001800D01*
X008100Y001700D01*
X008200Y001700D01*
X007200Y001700D02*
X007200Y001300D01*
X007100Y001300D01*
X007100Y001200D01*
X006900Y001200D01*
X006900Y001300D01*
X006800Y001300D01*
X006800Y001700D01*
X006900Y001700D01*
X006900Y001800D01*
X007100Y001800D01*
X007100Y001700D01*
X007200Y001700D01*
X006200Y001700D02*
X006200Y001300D01*
X006100Y001300D01*
X006100Y001200D01*
X005900Y001200D01*
X005900Y001300D01*
X005800Y001300D01*
X005800Y001700D01*
X005900Y001700D01*
X005900Y001800D01*
X006100Y001800D01*
X006100Y001700D01*
X006200Y001700D01*
X010680Y004625D02*
X010680Y005380D01*
X011320Y005380D02*
X011320Y004625D01*
X016000Y003000D02*
X016002Y003063D01*
X016008Y003125D01*
X016018Y003187D01*
X016031Y003249D01*
X016049Y003309D01*
X016070Y003368D01*
X016095Y003426D01*
X016124Y003482D01*
X016156Y003536D01*
X016191Y003588D01*
X016229Y003637D01*
X016271Y003685D01*
X016315Y003729D01*
X016363Y003771D01*
X016412Y003809D01*
X016464Y003844D01*
X016518Y003876D01*
X016574Y003905D01*
X016632Y003930D01*
X016691Y003951D01*
X016751Y003969D01*
X016813Y003982D01*
X016875Y003992D01*
X016937Y003998D01*
X017000Y004000D01*
X017063Y003998D01*
X017125Y003992D01*
X017187Y003982D01*
X017249Y003969D01*
X017309Y003951D01*
X017368Y003930D01*
X017426Y003905D01*
X017482Y003876D01*
X017536Y003844D01*
X017588Y003809D01*
X017637Y003771D01*
X017685Y003729D01*
X017729Y003685D01*
X017771Y003637D01*
X017809Y003588D01*
X017844Y003536D01*
X017876Y003482D01*
X017905Y003426D01*
X017930Y003368D01*
X017951Y003309D01*
X017969Y003249D01*
X017982Y003187D01*
X017992Y003125D01*
X017998Y003063D01*
X018000Y003000D01*
X017998Y002937D01*
X017992Y002875D01*
X017982Y002813D01*
X017969Y002751D01*
X017951Y002691D01*
X017930Y002632D01*
X017905Y002574D01*
X017876Y002518D01*
X017844Y002464D01*
X017809Y002412D01*
X017771Y002363D01*
X017729Y002315D01*
X017685Y002271D01*
X017637Y002229D01*
X017588Y002191D01*
X017536Y002156D01*
X017482Y002124D01*
X017426Y002095D01*
X017368Y002070D01*
X017309Y002049D01*
X017249Y002031D01*
X017187Y002018D01*
X017125Y002008D01*
X017063Y002002D01*
X017000Y002000D01*
X016937Y002002D01*
X016875Y002008D01*
X016813Y002018D01*
X016751Y002031D01*
X016691Y002049D01*
X016632Y002070D01*
X016574Y002095D01*
X016518Y002124D01*
X016464Y002156D01*
X016412Y002191D01*
X016363Y002229D01*
X016315Y002271D01*
X016271Y002315D01*
X016229Y002363D01*
X016191Y002412D01*
X016156Y002464D01*
X016124Y002518D01*
X016095Y002574D01*
X016070Y002632D01*
X016049Y002691D01*
X016031Y002751D01*
X016018Y002813D01*
X016008Y002875D01*
X016002Y002937D01*
X016000Y003000D01*
X017250Y006500D02*
X017450Y006500D01*
X017650Y006500D01*
D12*
X009095Y006343D03*
X009095Y006028D03*
X009095Y005713D03*
X009095Y005398D03*
X009095Y006657D03*
X009095Y006972D03*
X009095Y007287D03*
X009095Y007602D03*
X005905Y007602D03*
X005905Y007287D03*
X005905Y006972D03*
X005905Y006657D03*
X005905Y006343D03*
X005905Y006028D03*
X005905Y005713D03*
X005905Y005398D03*
D13*
X006398Y004905D03*
X006713Y004905D03*
X007028Y004905D03*
X007343Y004905D03*
X007657Y004905D03*
X007972Y004905D03*
X008287Y004905D03*
X008602Y004905D03*
X008602Y008095D03*
X008287Y008095D03*
X007972Y008095D03*
X007657Y008095D03*
X007343Y008095D03*
X007028Y008095D03*
X006713Y008095D03*
X006398Y008095D03*
D14*
X006425Y008515D02*
X006522Y008515D01*
X006473Y008515D02*
X006473Y008805D01*
X006425Y008805D02*
X006522Y008805D01*
X006621Y008757D02*
X006621Y008563D01*
X006670Y008515D01*
X006767Y008515D01*
X006815Y008563D01*
X006916Y008515D02*
X007110Y008515D01*
X007013Y008515D02*
X007013Y008805D01*
X006916Y008708D01*
X006815Y008757D02*
X006767Y008805D01*
X006670Y008805D01*
X006621Y008757D01*
D15*
X011950Y010950D02*
X011950Y013050D01*
X014050Y013050D01*
X014050Y010950D01*
X011950Y010950D01*
X012100Y010950D02*
X013900Y010950D01*
X013900Y013050D01*
X012100Y013050D01*
X012100Y010950D01*
X018000Y003750D02*
X018000Y002250D01*
D16*
X013620Y011250D03*
D17*
X014352Y011250D03*
X014352Y011750D03*
X014352Y012250D03*
X014352Y012750D03*
X011648Y012750D03*
X011648Y012250D03*
X011648Y011750D03*
X011648Y011250D03*
D18*
X013423Y010715D02*
X013423Y010440D01*
X013478Y010385D01*
X013589Y010385D01*
X013644Y010440D01*
X013644Y010715D01*
X013792Y010605D02*
X013902Y010715D01*
X013902Y010385D01*
X013792Y010385D02*
X014012Y010385D01*
D19*
X016000Y013500D02*
X018000Y013500D01*
X018000Y016500D01*
X016000Y016500D01*
X016000Y013500D01*
D20*
X016500Y014000D03*
X016500Y015000D03*
X016500Y016000D03*
X017500Y016000D03*
X017500Y015000D03*
X017500Y014000D03*
X015000Y009500D03*
X014000Y009500D03*
X013000Y009500D03*
X012000Y009500D03*
X011000Y009500D03*
X010000Y009500D03*
X009000Y009500D03*
X008000Y009500D03*
X007000Y009500D03*
X006000Y009500D03*
X004000Y002500D03*
X004000Y001500D03*
X003000Y001500D03*
X003000Y002500D03*
X002000Y002500D03*
X002000Y001500D03*
X001000Y001500D03*
X001000Y002500D03*
X012000Y020000D03*
X013000Y020000D03*
X014000Y020000D03*
D21*
X012746Y020675D02*
X012596Y020825D01*
X012671Y020825D02*
X012446Y020825D01*
X012446Y020675D02*
X012446Y021125D01*
X012671Y021125D01*
X012746Y021050D01*
X012746Y020900D01*
X012671Y020825D01*
X012286Y020675D02*
X012286Y021125D01*
X011985Y021125D02*
X011985Y020675D01*
X012136Y020825D01*
X012286Y020675D01*
X011825Y020900D02*
X011750Y020825D01*
X011525Y020825D01*
X011525Y020675D02*
X011525Y021125D01*
X011750Y021125D01*
X011825Y021050D01*
X011825Y020900D01*
X011175Y020225D02*
X011175Y019775D01*
X011025Y019775D02*
X011325Y019775D01*
X011025Y020075D02*
X011175Y020225D01*
X010724Y018575D02*
X009150Y018575D01*
X010724Y018476D02*
X010724Y015524D01*
X010724Y015425D02*
X009150Y015425D01*
X009069Y015226D01*
X008977Y015030D01*
X008877Y014840D01*
X008767Y014654D01*
X008648Y014474D01*
X008521Y014300D01*
X008385Y014133D01*
X008241Y013972D01*
X008090Y013819D01*
X007932Y013673D01*
X007766Y013535D01*
X007594Y013405D01*
X007416Y013283D01*
X007232Y013171D01*
X007043Y013068D01*
X006849Y012973D01*
X006650Y012889D01*
X006448Y012814D01*
X006243Y012749D01*
X006034Y012695D01*
X005823Y012650D01*
X005610Y012616D01*
X005396Y012592D01*
X005181Y012579D01*
X004965Y012576D01*
X004750Y012584D01*
X004535Y012602D01*
X004322Y012631D01*
X004110Y012670D01*
X003900Y012719D01*
X003693Y012779D01*
X003488Y012848D01*
X003288Y012927D01*
X003092Y013016D01*
X002900Y013115D01*
X002713Y013223D01*
X002532Y013339D01*
X002357Y013465D01*
X002188Y013598D01*
X002025Y013740D01*
X001870Y013890D01*
X001722Y014047D01*
X001582Y014211D01*
X001450Y014381D01*
X001327Y014558D01*
X001212Y014741D01*
X001107Y014928D01*
X001011Y015121D01*
X000924Y015319D01*
X000847Y015520D01*
X000780Y015725D01*
X000723Y015933D01*
X000676Y016143D01*
X000639Y016356D01*
X000613Y016570D01*
X000597Y016785D01*
X000592Y017000D01*
X000597Y017215D01*
X000613Y017430D01*
X000639Y017644D01*
X000676Y017857D01*
X000723Y018067D01*
X000780Y018275D01*
X000847Y018480D01*
X000924Y018681D01*
X001011Y018879D01*
X001107Y019072D01*
X001212Y019259D01*
X001327Y019442D01*
X001450Y019619D01*
X001582Y019789D01*
X001722Y019953D01*
X001870Y020110D01*
X002025Y020260D01*
X002188Y020402D01*
X002357Y020535D01*
X002532Y020661D01*
X002713Y020777D01*
X002900Y020885D01*
X003092Y020984D01*
X003288Y021073D01*
X003488Y021152D01*
X003693Y021221D01*
X003900Y021281D01*
X004110Y021330D01*
X004322Y021369D01*
X004535Y021398D01*
X004750Y021416D01*
X004965Y021424D01*
X005181Y021421D01*
X005396Y021408D01*
X005610Y021384D01*
X005823Y021350D01*
X006034Y021305D01*
X006243Y021251D01*
X006448Y021186D01*
X006650Y021111D01*
X006849Y021027D01*
X007043Y020932D01*
X007232Y020829D01*
X007416Y020717D01*
X007594Y020595D01*
X007766Y020465D01*
X007932Y020327D01*
X008090Y020181D01*
X008241Y020028D01*
X008385Y019867D01*
X008521Y019700D01*
X008648Y019526D01*
X008767Y019346D01*
X008877Y019160D01*
X008977Y018970D01*
X009069Y018774D01*
X009150Y018575D01*
X000760Y017000D02*
X000765Y017208D01*
X000780Y017416D01*
X000806Y017622D01*
X000842Y017828D01*
X000887Y018031D01*
X000943Y018231D01*
X001008Y018429D01*
X001083Y018623D01*
X001167Y018814D01*
X001261Y019000D01*
X001364Y019181D01*
X001475Y019357D01*
X001595Y019527D01*
X001723Y019691D01*
X001859Y019849D01*
X002002Y020000D01*
X002153Y020143D01*
X002311Y020279D01*
X002475Y020407D01*
X002645Y020527D01*
X002821Y020638D01*
X003002Y020741D01*
X003188Y020835D01*
X003379Y020919D01*
X003573Y020994D01*
X003771Y021059D01*
X003971Y021115D01*
X004174Y021160D01*
X004380Y021196D01*
X004586Y021222D01*
X004794Y021237D01*
X005002Y021242D01*
X005210Y021237D01*
X005418Y021222D01*
X005624Y021196D01*
X005830Y021160D01*
X006033Y021115D01*
X006233Y021059D01*
X006431Y020994D01*
X006625Y020919D01*
X006816Y020835D01*
X007002Y020741D01*
X007183Y020638D01*
X007359Y020527D01*
X007529Y020407D01*
X007693Y020279D01*
X007851Y020143D01*
X008002Y020000D01*
X008145Y019849D01*
X008281Y019691D01*
X008409Y019527D01*
X008529Y019357D01*
X008640Y019181D01*
X008743Y019000D01*
X008837Y018814D01*
X008921Y018623D01*
X008996Y018429D01*
X009061Y018231D01*
X009117Y018031D01*
X009162Y017828D01*
X009198Y017622D01*
X009224Y017416D01*
X009239Y017208D01*
X009244Y017000D01*
X009239Y016792D01*
X009224Y016584D01*
X009198Y016378D01*
X009162Y016172D01*
X009117Y015969D01*
X009061Y015769D01*
X008996Y015571D01*
X008921Y015377D01*
X008837Y015186D01*
X008743Y015000D01*
X008640Y014819D01*
X008529Y014643D01*
X008409Y014473D01*
X008281Y014309D01*
X008145Y014151D01*
X008002Y014000D01*
X007851Y013857D01*
X007693Y013721D01*
X007529Y013593D01*
X007359Y013473D01*
X007183Y013362D01*
X007002Y013259D01*
X006816Y013165D01*
X006625Y013081D01*
X006431Y013006D01*
X006233Y012941D01*
X006033Y012885D01*
X005830Y012840D01*
X005624Y012804D01*
X005418Y012778D01*
X005210Y012763D01*
X005002Y012758D01*
X004794Y012763D01*
X004586Y012778D01*
X004380Y012804D01*
X004174Y012840D01*
X003971Y012885D01*
X003771Y012941D01*
X003573Y013006D01*
X003379Y013081D01*
X003188Y013165D01*
X003002Y013259D01*
X002821Y013362D01*
X002645Y013473D01*
X002475Y013593D01*
X002311Y013721D01*
X002153Y013857D01*
X002002Y014000D01*
X001859Y014151D01*
X001723Y014309D01*
X001595Y014473D01*
X001475Y014643D01*
X001364Y014819D01*
X001261Y015000D01*
X001167Y015186D01*
X001083Y015377D01*
X001008Y015571D01*
X000943Y015769D01*
X000887Y015969D01*
X000842Y016172D01*
X000806Y016378D01*
X000780Y016584D01*
X000765Y016792D01*
X000760Y017000D01*
X001350Y009496D02*
X001275Y009421D01*
X001275Y009271D01*
X001350Y009196D01*
X001350Y009036D02*
X001275Y008961D01*
X001275Y008810D01*
X001350Y008735D01*
X001425Y008735D01*
X001500Y008810D01*
X001500Y008961D01*
X001575Y009036D01*
X001650Y009036D01*
X001725Y008961D01*
X001725Y008810D01*
X001650Y008735D01*
X001650Y008575D02*
X001275Y008575D01*
X001275Y008275D02*
X001650Y008275D01*
X001725Y008350D01*
X001725Y008500D01*
X001650Y008575D01*
X001800Y008886D02*
X001200Y008886D01*
X001725Y009196D02*
X001425Y009496D01*
X001350Y009496D01*
X001725Y009496D02*
X001725Y009196D01*
X002100Y008045D02*
X002100Y007887D01*
X002100Y007113D01*
X002100Y006887D01*
X002100Y006113D01*
X002100Y005955D01*
X001900Y006175D02*
X001975Y006250D01*
X001975Y006400D01*
X001900Y006475D01*
X001825Y006475D01*
X001750Y006400D01*
X001750Y006325D01*
X001750Y006400D02*
X001675Y006475D01*
X001600Y006475D01*
X001525Y006400D01*
X001525Y006250D01*
X001600Y006175D01*
X001725Y006775D02*
X001425Y007075D01*
X001350Y007075D01*
X001275Y007000D01*
X001275Y006850D01*
X001350Y006775D01*
X001725Y006775D02*
X001725Y007075D01*
X000997Y006690D02*
X001017Y006631D01*
X001040Y006574D01*
X001067Y006517D01*
X001098Y006463D01*
X001131Y006410D01*
X001168Y006360D01*
X001207Y006311D01*
X001250Y006266D01*
X001295Y006222D01*
X001342Y006182D01*
X001392Y006144D01*
X001444Y006109D01*
X001498Y006078D01*
X001553Y006050D01*
X001610Y006025D01*
X001669Y006004D01*
X001729Y005986D01*
X001790Y005971D01*
X001851Y005961D01*
X001913Y005954D01*
X001975Y005950D01*
X002038Y005951D01*
X002100Y005955D01*
X002650Y006175D02*
X002650Y007825D01*
X001975Y007775D02*
X001975Y007475D01*
X001975Y007625D02*
X001525Y007625D01*
X001675Y007475D01*
X000997Y007310D02*
X000980Y007249D01*
X000967Y007188D01*
X000958Y007125D01*
X000952Y007063D01*
X000950Y007000D01*
X000952Y006937D01*
X000958Y006875D01*
X000967Y006812D01*
X000980Y006751D01*
X000997Y006690D01*
X000997Y007310D02*
X001017Y007370D01*
X001041Y007429D01*
X001069Y007486D01*
X001100Y007541D01*
X001135Y007595D01*
X001172Y007646D01*
X001213Y007695D01*
X001257Y007741D01*
X001303Y007785D01*
X001352Y007826D01*
X001403Y007864D01*
X001456Y007898D01*
X001512Y007930D01*
X001569Y007957D01*
X001628Y007982D01*
X001688Y008002D01*
X001749Y008020D01*
X001811Y008033D01*
X001874Y008042D01*
X001937Y008048D01*
X002001Y008050D01*
X002065Y008048D01*
X002128Y008042D01*
X002191Y008033D01*
X002253Y008019D01*
X002314Y008002D01*
X002374Y007981D01*
X002433Y007957D01*
X002490Y007929D01*
X002546Y007897D01*
X002599Y007862D01*
X002650Y007825D01*
X002650Y006175D02*
X002602Y006140D01*
X002552Y006107D01*
X002500Y006076D01*
X002446Y006049D01*
X002391Y006025D01*
X002334Y006005D01*
X002277Y005987D01*
X002219Y005973D01*
X002160Y005962D01*
X002100Y005955D01*
X002804Y005350D02*
X002879Y005425D01*
X003029Y005425D01*
X003104Y005350D01*
X003104Y005050D01*
X003029Y004975D01*
X002879Y004975D01*
X002804Y005050D01*
X002804Y005350D01*
X002954Y005125D02*
X003104Y004975D01*
X003265Y004975D02*
X003565Y004975D01*
X003415Y004975D02*
X003415Y005425D01*
X003265Y005275D01*
X003915Y003625D02*
X003915Y003175D01*
X003765Y003175D02*
X004065Y003175D01*
X003765Y003475D02*
X003915Y003625D01*
X005525Y002625D02*
X005525Y002175D01*
X005675Y002325D01*
X005825Y002175D01*
X005825Y002625D01*
X005975Y002575D02*
X005975Y002125D01*
X005985Y002175D02*
X005985Y002625D01*
X006211Y002625D01*
X006286Y002550D01*
X006286Y002400D01*
X006211Y002325D01*
X005985Y002325D01*
X006136Y002325D02*
X006286Y002175D01*
X006446Y002175D02*
X006746Y002175D01*
X006906Y002400D02*
X007206Y002400D01*
X007367Y002250D02*
X007667Y002550D01*
X007667Y002250D01*
X007592Y002175D01*
X007442Y002175D01*
X007367Y002250D01*
X007367Y002550D01*
X007442Y002625D01*
X007592Y002625D01*
X007667Y002550D01*
X007827Y002550D02*
X007827Y002250D01*
X008127Y002550D01*
X008127Y002250D01*
X008052Y002175D01*
X007902Y002175D01*
X007827Y002250D01*
X007827Y002550D02*
X007902Y002625D01*
X008052Y002625D01*
X008127Y002550D01*
X008287Y002400D02*
X008513Y002400D01*
X008588Y002325D01*
X008588Y002250D01*
X008513Y002175D01*
X008362Y002175D01*
X008287Y002250D01*
X008287Y002400D01*
X008437Y002550D01*
X008588Y002625D01*
X008748Y002550D02*
X008748Y002475D01*
X008823Y002400D01*
X009048Y002400D01*
X009048Y002250D02*
X009048Y002550D01*
X008973Y002625D01*
X008823Y002625D01*
X008748Y002550D01*
X008748Y002250D02*
X008823Y002175D01*
X008973Y002175D01*
X009048Y002250D01*
X009208Y002175D02*
X009508Y002175D01*
X009358Y002175D02*
X009358Y002625D01*
X009208Y002475D01*
X006446Y002625D02*
X006446Y002175D01*
X006125Y002125D02*
X005825Y002125D01*
X005825Y002425D02*
X005975Y002575D01*
X004215Y000825D02*
X004215Y000375D01*
X004065Y000375D02*
X004365Y000375D01*
X004065Y000675D02*
X004215Y000825D01*
X003904Y000825D02*
X003904Y000525D01*
X003754Y000375D01*
X003604Y000525D01*
X003604Y000825D01*
X003444Y000750D02*
X003369Y000825D01*
X003219Y000825D01*
X003144Y000750D01*
X003144Y000675D01*
X003219Y000600D01*
X003369Y000600D01*
X003444Y000525D01*
X003444Y000450D01*
X003369Y000375D01*
X003219Y000375D01*
X003144Y000450D01*
X000865Y000450D02*
X000790Y000375D01*
X000640Y000375D01*
X000565Y000450D01*
X000565Y000525D01*
X000640Y000600D01*
X000790Y000600D01*
X000865Y000525D01*
X000865Y000450D01*
X000790Y000600D02*
X000865Y000675D01*
X000865Y000750D01*
X000790Y000825D01*
X000640Y000825D01*
X000565Y000750D01*
X000565Y000675D01*
X000640Y000600D01*
X005354Y008375D02*
X005654Y008375D01*
X005504Y008375D02*
X005504Y008825D01*
X005354Y008675D01*
X005815Y008750D02*
X005815Y008450D01*
X006115Y008750D01*
X006115Y008450D01*
X006040Y008375D01*
X005890Y008375D01*
X005815Y008450D01*
X005815Y008750D02*
X005890Y008825D01*
X006040Y008825D01*
X006115Y008750D01*
X012825Y002500D02*
X012825Y002425D01*
X012900Y002350D01*
X013050Y002350D01*
X013125Y002275D01*
X013125Y002200D01*
X013050Y002125D01*
X012900Y002125D01*
X012825Y002200D01*
X012825Y002275D01*
X012900Y002350D01*
X013050Y002350D02*
X013125Y002425D01*
X013125Y002500D01*
X013050Y002575D01*
X012900Y002575D01*
X012825Y002500D01*
X016230Y007425D02*
X016380Y007425D01*
X016455Y007500D01*
X016615Y007500D02*
X016690Y007425D01*
X016841Y007425D01*
X016916Y007500D01*
X016916Y007575D01*
X016841Y007650D01*
X016690Y007650D01*
X016615Y007725D01*
X016615Y007800D01*
X016690Y007875D01*
X016841Y007875D01*
X016916Y007800D01*
X017076Y007875D02*
X017076Y007425D01*
X017376Y007425D01*
X017536Y007425D02*
X017536Y007875D01*
X017836Y007425D01*
X017836Y007875D01*
X017997Y007800D02*
X017997Y007725D01*
X018072Y007650D01*
X018222Y007650D01*
X018297Y007575D01*
X018297Y007500D01*
X018222Y007425D01*
X018072Y007425D01*
X017997Y007500D01*
X017997Y007800D02*
X018072Y007875D01*
X018222Y007875D01*
X018297Y007800D01*
X018457Y007875D02*
X018457Y007425D01*
X018757Y007425D01*
X018607Y007650D02*
X018457Y007650D01*
X018457Y007875D02*
X018757Y007875D01*
X017376Y007875D02*
X017076Y007875D01*
X017076Y007650D02*
X017226Y007650D01*
X016455Y007800D02*
X016380Y007875D01*
X016230Y007875D01*
X016155Y007800D01*
X016155Y007500D01*
X016230Y007425D01*
X015365Y008375D02*
X015065Y008375D01*
X015365Y008675D01*
X015365Y008750D01*
X015290Y008825D01*
X015140Y008825D01*
X015065Y008750D01*
X014904Y008825D02*
X014904Y008525D01*
X014754Y008375D01*
X014604Y008525D01*
X014604Y008825D01*
X014444Y008750D02*
X014369Y008825D01*
X014219Y008825D01*
X014144Y008750D01*
X014144Y008675D01*
X014219Y008600D01*
X014369Y008600D01*
X014444Y008525D01*
X014444Y008450D01*
X014369Y008375D01*
X014219Y008375D01*
X014144Y008450D01*
X014765Y010175D02*
X015065Y010175D01*
X014915Y010175D02*
X014915Y010625D01*
X014765Y010475D01*
X016475Y010446D02*
X016925Y010446D01*
X016925Y010746D01*
X016925Y010906D02*
X016475Y010906D01*
X016925Y011206D01*
X016475Y011206D01*
X016550Y011367D02*
X016625Y011367D01*
X016700Y011442D01*
X016700Y011592D01*
X016775Y011667D01*
X016850Y011667D01*
X016925Y011592D01*
X016925Y011442D01*
X016850Y011367D01*
X016550Y011367D02*
X016475Y011442D01*
X016475Y011592D01*
X016550Y011667D01*
X016475Y011827D02*
X016925Y011827D01*
X016925Y012127D01*
X016700Y011977D02*
X016700Y011827D01*
X016475Y011827D02*
X016475Y012127D01*
X016475Y010746D02*
X016475Y010446D01*
X016550Y010286D02*
X016475Y010211D01*
X016475Y010060D01*
X016550Y009985D01*
X016625Y009985D01*
X016700Y010060D01*
X016700Y010211D01*
X016775Y010286D01*
X016850Y010286D01*
X016925Y010211D01*
X016925Y010060D01*
X016850Y009985D01*
X016925Y009825D02*
X016775Y009675D01*
X016775Y009750D02*
X016775Y009525D01*
X016925Y009525D02*
X016475Y009525D01*
X016475Y009750D01*
X016550Y009825D01*
X016700Y009825D01*
X016775Y009750D01*
X016700Y010446D02*
X016700Y010596D01*
X018650Y013525D02*
X018725Y013600D01*
X018725Y013675D01*
X018650Y013750D01*
X018275Y013750D01*
X018275Y013675D02*
X018275Y013825D01*
X018275Y013985D02*
X018275Y014211D01*
X018350Y014286D01*
X018500Y014286D01*
X018575Y014211D01*
X018575Y013985D01*
X018725Y013985D02*
X018275Y013985D01*
X018425Y014446D02*
X018275Y014596D01*
X018725Y014596D01*
X018725Y014446D02*
X018725Y014746D01*
X018650Y018425D02*
X018650Y018875D01*
X018425Y018650D01*
X018725Y018650D01*
X018725Y020125D02*
X018425Y020125D01*
X018725Y020425D01*
X018725Y020500D01*
X018650Y020575D01*
X018500Y020575D01*
X018425Y020500D01*
X016586Y020975D02*
X016285Y020975D01*
X016436Y020975D02*
X016436Y021425D01*
X016285Y021275D01*
X016125Y021350D02*
X016050Y021425D01*
X015900Y021425D01*
X015825Y021350D01*
X015825Y021275D01*
X015900Y021200D01*
X016050Y021200D01*
X016125Y021125D01*
X016125Y021050D01*
X016050Y020975D01*
X015900Y020975D01*
X015825Y021050D01*
X015475Y020625D02*
X015325Y020475D01*
X015475Y020625D02*
X015475Y020175D01*
X015325Y020175D02*
X015625Y020175D01*
X015450Y018875D02*
X015300Y018875D01*
X015225Y018800D01*
X015375Y018650D02*
X015450Y018650D01*
X015525Y018575D01*
X015525Y018500D01*
X015450Y018425D01*
X015300Y018425D01*
X015225Y018500D01*
X015450Y018650D02*
X015525Y018725D01*
X015525Y018800D01*
X015450Y018875D01*
X018275Y003685D02*
X018500Y003685D01*
X018575Y003610D01*
X018575Y003460D01*
X018500Y003385D01*
X018275Y003385D01*
X018275Y003235D02*
X018275Y003685D01*
X018735Y003685D02*
X018735Y003235D01*
X018961Y003235D01*
X019036Y003310D01*
X019036Y003610D01*
X018961Y003685D01*
X018735Y003685D01*
D22*
X013000Y001700D03*
X013000Y001300D03*
X012000Y001300D03*
X012000Y001700D03*
X011000Y001700D03*
X011000Y001300D03*
X010000Y001300D03*
X010000Y001700D03*
X009000Y001700D03*
X009000Y001300D03*
X008000Y001300D03*
X008000Y001700D03*
X007000Y001700D03*
X007000Y001300D03*
X006000Y001300D03*
X006000Y001700D03*
D23*
X009952Y015652D02*
X009952Y016380D01*
X009588Y016016D02*
X010316Y016016D01*
X002836Y016410D02*
X002108Y016410D01*
D24*
X001500Y013020D03*
X001500Y011980D03*
X010000Y013480D03*
X010000Y014520D03*
X011000Y005520D03*
X011000Y004480D03*
D25*
X011470Y004726D02*
X011470Y004879D01*
X011546Y004956D01*
X011546Y005110D02*
X011470Y005186D01*
X011470Y005340D01*
X011546Y005417D01*
X011623Y005417D01*
X011700Y005340D01*
X011777Y005417D01*
X011853Y005417D01*
X011930Y005340D01*
X011930Y005186D01*
X011853Y005110D01*
X011853Y004956D02*
X011930Y004879D01*
X011930Y004726D01*
X011853Y004649D01*
X011546Y004649D01*
X011470Y004726D01*
X011700Y005263D02*
X011700Y005340D01*
X012501Y005570D02*
X012501Y006030D01*
X012731Y006030D01*
X012808Y005954D01*
X012808Y005800D01*
X012731Y005723D01*
X012501Y005723D01*
X012654Y005723D02*
X012808Y005570D01*
X012961Y005570D02*
X013191Y005570D01*
X013268Y005647D01*
X013268Y005723D01*
X013191Y005800D01*
X012961Y005800D01*
X012961Y005570D02*
X012961Y006030D01*
X013191Y006030D01*
X013268Y005954D01*
X013268Y005877D01*
X013191Y005800D01*
X013421Y005723D02*
X013652Y005723D01*
X013728Y005800D01*
X013728Y005954D01*
X013652Y006030D01*
X013421Y006030D01*
X013421Y005570D01*
X013575Y005723D02*
X013728Y005570D01*
X013882Y005570D02*
X014035Y005570D01*
X013959Y005570D02*
X013959Y006030D01*
X014035Y006030D02*
X013882Y006030D01*
X014189Y006030D02*
X014189Y005570D01*
X014419Y005570D01*
X014496Y005647D01*
X014496Y005954D01*
X014419Y006030D01*
X014189Y006030D01*
X014649Y005954D02*
X014649Y005647D01*
X014726Y005570D01*
X014879Y005570D01*
X014956Y005647D01*
X014956Y005800D01*
X014803Y005800D01*
X014956Y005954D02*
X014879Y006030D01*
X014726Y006030D01*
X014649Y005954D01*
X015110Y006030D02*
X015110Y005570D01*
X015417Y005570D01*
X015263Y005800D02*
X015110Y005800D01*
X015110Y006030D02*
X015417Y006030D01*
X014340Y004530D02*
X014110Y004530D01*
X014110Y004070D01*
X014110Y004223D02*
X014340Y004223D01*
X014417Y004300D01*
X014417Y004454D01*
X014340Y004530D01*
X013956Y004377D02*
X013956Y004070D01*
X013956Y004300D02*
X013649Y004300D01*
X013649Y004377D02*
X013803Y004530D01*
X013956Y004377D01*
X013649Y004377D02*
X013649Y004070D01*
X013496Y004147D02*
X013419Y004070D01*
X013266Y004070D01*
X013189Y004147D01*
X013189Y004454D01*
X013266Y004530D01*
X013419Y004530D01*
X013496Y004454D01*
X013035Y004454D02*
X013035Y004300D01*
X012959Y004223D01*
X012728Y004223D01*
X012728Y004070D02*
X012728Y004530D01*
X012959Y004530D01*
X013035Y004454D01*
X012882Y004223D02*
X013035Y004070D01*
X013149Y003030D02*
X013379Y003030D01*
X013456Y002954D01*
X013456Y002800D01*
X013379Y002723D01*
X013149Y002723D01*
X013149Y002570D02*
X013149Y003030D01*
X012996Y002954D02*
X012996Y002800D01*
X012919Y002723D01*
X012689Y002723D01*
X012689Y002570D02*
X012689Y003030D01*
X012919Y003030D01*
X012996Y002954D01*
X012842Y002723D02*
X012996Y002570D01*
X013610Y002570D02*
X013840Y002570D01*
X013917Y002647D01*
X013917Y002954D01*
X013840Y003030D01*
X013610Y003030D01*
X013610Y002570D01*
X009453Y013470D02*
X009146Y013470D01*
X009070Y013547D01*
X009070Y013700D01*
X009146Y013777D01*
X009300Y013930D02*
X009300Y014237D01*
X009530Y014161D02*
X009070Y014161D01*
X009300Y013930D01*
X009453Y013777D02*
X009530Y013700D01*
X009530Y013547D01*
X009453Y013470D01*
X011042Y017770D02*
X011196Y017770D01*
X011119Y017770D02*
X011119Y018230D01*
X011042Y018230D02*
X011196Y018230D01*
X011349Y018154D02*
X011349Y017847D01*
X011426Y017770D01*
X011579Y017770D01*
X011656Y017847D01*
X011810Y018000D02*
X012117Y018000D01*
X012040Y017770D02*
X012040Y018230D01*
X011810Y018000D01*
X011656Y018154D02*
X011579Y018230D01*
X011426Y018230D01*
X011349Y018154D01*
X014020Y017290D02*
X014020Y017060D01*
X014480Y017060D01*
X014327Y017060D02*
X014327Y017290D01*
X014250Y017367D01*
X014096Y017367D01*
X014020Y017290D01*
X014020Y016906D02*
X014480Y016906D01*
X014327Y016753D01*
X014480Y016599D01*
X014020Y016599D01*
X014096Y016446D02*
X014250Y016446D01*
X014327Y016369D01*
X014327Y016139D01*
X014480Y016139D02*
X014020Y016139D01*
X014020Y016369D01*
X014096Y016446D01*
X014020Y015985D02*
X014020Y015678D01*
X014020Y015525D02*
X014480Y015218D01*
X014480Y015065D02*
X014480Y014758D01*
X014020Y014758D01*
X014020Y015065D01*
X014020Y015218D02*
X014480Y015525D01*
X014480Y015832D02*
X014020Y015832D01*
X014250Y014911D02*
X014250Y014758D01*
X014327Y017213D02*
X014480Y017367D01*
X002430Y012917D02*
X002430Y012610D01*
X002430Y012763D02*
X001970Y012763D01*
X002123Y012610D01*
X002046Y012456D02*
X001970Y012379D01*
X001970Y012226D01*
X002046Y012149D01*
X002353Y012149D01*
X002430Y012226D01*
X002430Y012379D01*
X002353Y012456D01*
D26*
X004500Y005000D02*
X004250Y004750D01*
X004200Y004700D02*
X004050Y004700D01*
X004000Y004300D02*
X004200Y004300D01*
X004250Y004250D02*
X004500Y004000D01*
D27*
X003985Y004300D03*
X003985Y004700D03*
D28*
X016500Y018300D02*
X016500Y018400D01*
X017450Y018400D01*
X017450Y018300D01*
X017500Y019000D02*
X017500Y020000D01*
X016500Y020000D01*
X016500Y019000D01*
X017500Y019000D01*
X016750Y019500D02*
X016752Y019531D01*
X016758Y019562D01*
X016768Y019592D01*
X016781Y019620D01*
X016798Y019647D01*
X016818Y019671D01*
X016841Y019693D01*
X016866Y019711D01*
X016894Y019726D01*
X016923Y019738D01*
X016953Y019746D01*
X016984Y019750D01*
X017016Y019750D01*
X017047Y019746D01*
X017077Y019738D01*
X017106Y019726D01*
X017134Y019711D01*
X017159Y019693D01*
X017182Y019671D01*
X017202Y019647D01*
X017219Y019620D01*
X017232Y019592D01*
X017242Y019562D01*
X017248Y019531D01*
X017250Y019500D01*
X017248Y019469D01*
X017242Y019438D01*
X017232Y019408D01*
X017219Y019380D01*
X017202Y019353D01*
X017182Y019329D01*
X017159Y019307D01*
X017134Y019289D01*
X017106Y019274D01*
X017077Y019262D01*
X017047Y019254D01*
X017016Y019250D01*
X016984Y019250D01*
X016953Y019254D01*
X016923Y019262D01*
X016894Y019274D01*
X016866Y019289D01*
X016841Y019307D01*
X016818Y019329D01*
X016798Y019353D01*
X016781Y019380D01*
X016768Y019408D01*
X016758Y019438D01*
X016752Y019469D01*
X016750Y019500D01*
X016500Y020600D02*
X017500Y020600D01*
X017500Y020700D01*
X016500Y020700D02*
X016500Y020600D01*
D29*
X013374Y018463D03*
X013000Y018463D03*
X012626Y018463D03*
X012626Y017537D03*
X013374Y017537D03*
D30*
X017004Y002126D02*
X017004Y002176D01*
X017005Y002175D02*
X017061Y002177D01*
X017116Y002183D01*
X017171Y002193D01*
X017226Y002206D01*
X017279Y002224D01*
X017331Y002244D01*
X017381Y002268D01*
X017430Y002296D01*
X017477Y002327D01*
X017521Y002360D01*
X017563Y002397D01*
X017603Y002437D01*
X017640Y002479D01*
X017673Y002523D01*
X017704Y002570D01*
X017732Y002619D01*
X017756Y002669D01*
X017776Y002721D01*
X017794Y002774D01*
X017807Y002829D01*
X017817Y002884D01*
X017823Y002939D01*
X017825Y002995D01*
X017874Y002996D01*
X017875Y002995D01*
X017873Y002938D01*
X017867Y002882D01*
X017857Y002826D01*
X017844Y002770D01*
X017828Y002716D01*
X017807Y002663D01*
X017784Y002611D01*
X017757Y002561D01*
X017727Y002513D01*
X017694Y002467D01*
X017658Y002423D01*
X017619Y002381D01*
X017577Y002342D01*
X017533Y002306D01*
X017487Y002273D01*
X017439Y002243D01*
X017389Y002216D01*
X017337Y002193D01*
X017284Y002172D01*
X017230Y002156D01*
X017174Y002143D01*
X017118Y002133D01*
X017062Y002127D01*
X017005Y002125D01*
X017005Y002134D01*
X017061Y002136D01*
X017117Y002142D01*
X017173Y002151D01*
X017227Y002164D01*
X017281Y002181D01*
X017334Y002201D01*
X017385Y002224D01*
X017434Y002251D01*
X017482Y002281D01*
X017528Y002313D01*
X017571Y002349D01*
X017612Y002388D01*
X017651Y002429D01*
X017687Y002472D01*
X017719Y002518D01*
X017749Y002566D01*
X017776Y002615D01*
X017799Y002666D01*
X017819Y002719D01*
X017836Y002773D01*
X017849Y002827D01*
X017858Y002883D01*
X017864Y002939D01*
X017866Y002995D01*
X017857Y002995D01*
X017855Y002937D01*
X017848Y002879D01*
X017838Y002822D01*
X017824Y002766D01*
X017807Y002710D01*
X017785Y002656D01*
X017760Y002604D01*
X017731Y002553D01*
X017700Y002505D01*
X017664Y002459D01*
X017626Y002415D01*
X017585Y002374D01*
X017541Y002336D01*
X017495Y002300D01*
X017447Y002269D01*
X017396Y002240D01*
X017344Y002215D01*
X017290Y002193D01*
X017234Y002176D01*
X017178Y002162D01*
X017121Y002152D01*
X017063Y002145D01*
X017005Y002143D01*
X017005Y002152D01*
X017062Y002154D01*
X017120Y002160D01*
X017176Y002170D01*
X017232Y002184D01*
X017287Y002202D01*
X017340Y002223D01*
X017392Y002248D01*
X017442Y002276D01*
X017490Y002308D01*
X017536Y002343D01*
X017579Y002380D01*
X017620Y002421D01*
X017657Y002464D01*
X017692Y002510D01*
X017724Y002558D01*
X017752Y002608D01*
X017777Y002660D01*
X017798Y002713D01*
X017816Y002768D01*
X017830Y002824D01*
X017840Y002880D01*
X017846Y002938D01*
X017848Y002995D01*
X017839Y002995D01*
X017837Y002938D01*
X017831Y002882D01*
X017821Y002826D01*
X017807Y002771D01*
X017790Y002716D01*
X017769Y002664D01*
X017744Y002612D01*
X017716Y002563D01*
X017685Y002515D01*
X017650Y002470D01*
X017613Y002427D01*
X017573Y002387D01*
X017530Y002350D01*
X017485Y002315D01*
X017437Y002284D01*
X017388Y002256D01*
X017336Y002231D01*
X017284Y002210D01*
X017229Y002193D01*
X017174Y002179D01*
X017118Y002169D01*
X017062Y002163D01*
X017005Y002161D01*
X017005Y002170D01*
X017061Y002172D01*
X017117Y002178D01*
X017172Y002188D01*
X017227Y002202D01*
X017281Y002219D01*
X017333Y002240D01*
X017384Y002264D01*
X017433Y002292D01*
X017480Y002323D01*
X017524Y002357D01*
X017567Y002394D01*
X017606Y002433D01*
X017643Y002476D01*
X017677Y002520D01*
X017708Y002567D01*
X017736Y002616D01*
X017760Y002667D01*
X017781Y002719D01*
X017798Y002773D01*
X017812Y002828D01*
X017822Y002883D01*
X017828Y002939D01*
X017830Y002995D01*
X016996Y003874D02*
X016996Y003824D01*
X016995Y003825D02*
X016939Y003823D01*
X016884Y003817D01*
X016829Y003807D01*
X016774Y003794D01*
X016721Y003776D01*
X016669Y003756D01*
X016619Y003732D01*
X016570Y003704D01*
X016523Y003673D01*
X016479Y003640D01*
X016437Y003603D01*
X016397Y003563D01*
X016360Y003521D01*
X016327Y003477D01*
X016296Y003430D01*
X016268Y003381D01*
X016244Y003331D01*
X016224Y003279D01*
X016206Y003226D01*
X016193Y003171D01*
X016183Y003116D01*
X016177Y003061D01*
X016175Y003005D01*
X016126Y003004D01*
X016125Y003005D01*
X016127Y003062D01*
X016133Y003118D01*
X016143Y003174D01*
X016156Y003230D01*
X016172Y003284D01*
X016193Y003337D01*
X016216Y003389D01*
X016243Y003439D01*
X016273Y003487D01*
X016306Y003533D01*
X016342Y003577D01*
X016381Y003619D01*
X016423Y003658D01*
X016467Y003694D01*
X016513Y003727D01*
X016561Y003757D01*
X016611Y003784D01*
X016663Y003807D01*
X016716Y003828D01*
X016770Y003844D01*
X016826Y003857D01*
X016882Y003867D01*
X016938Y003873D01*
X016995Y003875D01*
X016995Y003866D01*
X016939Y003864D01*
X016883Y003858D01*
X016827Y003849D01*
X016773Y003836D01*
X016719Y003819D01*
X016666Y003799D01*
X016615Y003776D01*
X016566Y003749D01*
X016518Y003719D01*
X016472Y003687D01*
X016429Y003651D01*
X016388Y003612D01*
X016349Y003571D01*
X016313Y003528D01*
X016281Y003482D01*
X016251Y003434D01*
X016224Y003385D01*
X016201Y003334D01*
X016181Y003281D01*
X016164Y003227D01*
X016151Y003173D01*
X016142Y003117D01*
X016136Y003061D01*
X016134Y003005D01*
X016143Y003005D01*
X016145Y003063D01*
X016152Y003121D01*
X016162Y003178D01*
X016176Y003234D01*
X016193Y003290D01*
X016215Y003344D01*
X016240Y003396D01*
X016269Y003447D01*
X016300Y003495D01*
X016336Y003541D01*
X016374Y003585D01*
X016415Y003626D01*
X016459Y003664D01*
X016505Y003700D01*
X016553Y003731D01*
X016604Y003760D01*
X016656Y003785D01*
X016710Y003807D01*
X016766Y003824D01*
X016822Y003838D01*
X016879Y003848D01*
X016937Y003855D01*
X016995Y003857D01*
X016995Y003848D01*
X016938Y003846D01*
X016880Y003840D01*
X016824Y003830D01*
X016768Y003816D01*
X016713Y003798D01*
X016660Y003777D01*
X016608Y003752D01*
X016558Y003724D01*
X016510Y003692D01*
X016464Y003657D01*
X016421Y003620D01*
X016380Y003579D01*
X016343Y003536D01*
X016308Y003490D01*
X016276Y003442D01*
X016248Y003392D01*
X016223Y003340D01*
X016202Y003287D01*
X016184Y003232D01*
X016170Y003176D01*
X016160Y003120D01*
X016154Y003062D01*
X016152Y003005D01*
X016161Y003005D01*
X016163Y003062D01*
X016169Y003118D01*
X016179Y003174D01*
X016193Y003229D01*
X016210Y003284D01*
X016231Y003336D01*
X016256Y003388D01*
X016284Y003437D01*
X016315Y003485D01*
X016350Y003530D01*
X016387Y003573D01*
X016427Y003613D01*
X016470Y003650D01*
X016515Y003685D01*
X016563Y003716D01*
X016612Y003744D01*
X016664Y003769D01*
X016716Y003790D01*
X016771Y003807D01*
X016826Y003821D01*
X016882Y003831D01*
X016938Y003837D01*
X016995Y003839D01*
X016995Y003830D01*
X016939Y003828D01*
X016883Y003822D01*
X016828Y003812D01*
X016773Y003798D01*
X016719Y003781D01*
X016667Y003760D01*
X016616Y003736D01*
X016567Y003708D01*
X016520Y003677D01*
X016476Y003643D01*
X016433Y003606D01*
X016394Y003567D01*
X016357Y003524D01*
X016323Y003480D01*
X016292Y003433D01*
X016264Y003384D01*
X016240Y003333D01*
X016219Y003281D01*
X016202Y003227D01*
X016188Y003172D01*
X016178Y003117D01*
X016172Y003061D01*
X016170Y003005D01*
X018032Y003780D02*
X017960Y003726D01*
X017961Y003727D02*
X017918Y003780D01*
X017873Y003831D01*
X017824Y003879D01*
X017773Y003924D01*
X017719Y003967D01*
X017663Y004006D01*
X017605Y004042D01*
X017545Y004075D01*
X017484Y004104D01*
X017420Y004129D01*
X017356Y004151D01*
X017290Y004170D01*
X017223Y004184D01*
X017156Y004195D01*
X017088Y004202D01*
X017020Y004205D01*
X016951Y004204D01*
X016883Y004199D01*
X016815Y004191D01*
X016748Y004178D01*
X016682Y004162D01*
X016617Y004142D01*
X016552Y004119D01*
X016490Y004092D01*
X016429Y004061D01*
X016370Y004027D01*
X016312Y003990D01*
X016257Y003949D01*
X016205Y003905D01*
X016155Y003859D01*
X016108Y003810D01*
X016063Y003758D01*
X016022Y003704D01*
X015983Y003647D01*
X015948Y003588D01*
X015917Y003528D01*
X015889Y003466D01*
X015864Y003402D01*
X015843Y003337D01*
X015826Y003271D01*
X015812Y003204D01*
X015803Y003136D01*
X015797Y003068D01*
X015795Y003000D01*
X015797Y002932D01*
X015803Y002864D01*
X015812Y002796D01*
X015826Y002729D01*
X015843Y002663D01*
X015864Y002598D01*
X015889Y002534D01*
X015917Y002472D01*
X015948Y002412D01*
X015983Y002353D01*
X016022Y002296D01*
X016063Y002242D01*
X016108Y002190D01*
X016155Y002141D01*
X016205Y002095D01*
X016257Y002051D01*
X016312Y002010D01*
X016370Y001973D01*
X016429Y001939D01*
X016490Y001908D01*
X016552Y001881D01*
X016617Y001858D01*
X016682Y001838D01*
X016748Y001822D01*
X016815Y001809D01*
X016883Y001801D01*
X016951Y001796D01*
X017020Y001795D01*
X017088Y001798D01*
X017156Y001805D01*
X017223Y001816D01*
X017290Y001830D01*
X017356Y001849D01*
X017420Y001871D01*
X017484Y001896D01*
X017545Y001925D01*
X017605Y001958D01*
X017663Y001994D01*
X017719Y002033D01*
X017773Y002076D01*
X017824Y002121D01*
X017873Y002169D01*
X017918Y002220D01*
X017961Y002273D01*
X018032Y002220D01*
X018033Y002219D01*
X017989Y002164D01*
X017941Y002111D01*
X017891Y002060D01*
X017838Y002013D01*
X017783Y001969D01*
X017725Y001927D01*
X017665Y001889D01*
X017604Y001854D01*
X017540Y001823D01*
X017475Y001795D01*
X017408Y001771D01*
X017340Y001750D01*
X017271Y001734D01*
X017201Y001721D01*
X017131Y001712D01*
X017060Y001706D01*
X016989Y001705D01*
X016918Y001708D01*
X016847Y001714D01*
X016777Y001724D01*
X016708Y001738D01*
X016639Y001756D01*
X016571Y001778D01*
X016505Y001803D01*
X016440Y001832D01*
X016377Y001865D01*
X016316Y001901D01*
X016257Y001940D01*
X016200Y001982D01*
X016145Y002027D01*
X016093Y002076D01*
X016044Y002127D01*
X015997Y002180D01*
X015954Y002237D01*
X015914Y002295D01*
X015877Y002356D01*
X015843Y002418D01*
X015813Y002482D01*
X015786Y002548D01*
X015763Y002615D01*
X015744Y002684D01*
X015729Y002753D01*
X015717Y002823D01*
X015709Y002894D01*
X015705Y002965D01*
X015705Y003035D01*
X015709Y003106D01*
X015717Y003177D01*
X015729Y003247D01*
X015744Y003316D01*
X015763Y003385D01*
X015786Y003452D01*
X015813Y003518D01*
X015843Y003582D01*
X015877Y003644D01*
X015914Y003705D01*
X015954Y003763D01*
X015997Y003820D01*
X016044Y003873D01*
X016093Y003924D01*
X016145Y003973D01*
X016200Y004018D01*
X016257Y004060D01*
X016316Y004099D01*
X016377Y004135D01*
X016440Y004168D01*
X016505Y004197D01*
X016571Y004222D01*
X016639Y004244D01*
X016708Y004262D01*
X016777Y004276D01*
X016847Y004286D01*
X016918Y004292D01*
X016989Y004295D01*
X017060Y004294D01*
X017131Y004288D01*
X017201Y004279D01*
X017271Y004266D01*
X017340Y004250D01*
X017408Y004229D01*
X017475Y004205D01*
X017540Y004177D01*
X017604Y004146D01*
X017665Y004111D01*
X017725Y004073D01*
X017783Y004031D01*
X017838Y003987D01*
X017891Y003940D01*
X017941Y003889D01*
X017989Y003836D01*
X018033Y003781D01*
X018026Y003776D01*
X017981Y003831D01*
X017934Y003884D01*
X017883Y003935D01*
X017830Y003982D01*
X017774Y004027D01*
X017716Y004068D01*
X017656Y004106D01*
X017594Y004141D01*
X017530Y004172D01*
X017464Y004199D01*
X017397Y004223D01*
X017328Y004243D01*
X017259Y004260D01*
X017189Y004272D01*
X017118Y004281D01*
X017047Y004285D01*
X016976Y004286D01*
X016905Y004282D01*
X016834Y004275D01*
X016763Y004264D01*
X016694Y004249D01*
X016625Y004230D01*
X016557Y004207D01*
X016491Y004181D01*
X016426Y004151D01*
X016364Y004117D01*
X016303Y004081D01*
X016244Y004040D01*
X016187Y003997D01*
X016133Y003950D01*
X016082Y003901D01*
X016034Y003848D01*
X015988Y003794D01*
X015946Y003736D01*
X015907Y003677D01*
X015871Y003615D01*
X015838Y003552D01*
X015810Y003487D01*
X015784Y003420D01*
X015763Y003352D01*
X015745Y003283D01*
X015732Y003213D01*
X015722Y003142D01*
X015716Y003071D01*
X015714Y003000D01*
X015716Y002929D01*
X015722Y002858D01*
X015732Y002787D01*
X015745Y002717D01*
X015763Y002648D01*
X015784Y002580D01*
X015810Y002513D01*
X015838Y002448D01*
X015871Y002385D01*
X015907Y002323D01*
X015946Y002264D01*
X015988Y002206D01*
X016034Y002152D01*
X016082Y002099D01*
X016133Y002050D01*
X016187Y002003D01*
X016244Y001960D01*
X016303Y001919D01*
X016364Y001883D01*
X016426Y001849D01*
X016491Y001819D01*
X016557Y001793D01*
X016625Y001770D01*
X016694Y001751D01*
X016763Y001736D01*
X016834Y001725D01*
X016905Y001718D01*
X016976Y001714D01*
X017047Y001715D01*
X017118Y001719D01*
X017189Y001728D01*
X017259Y001740D01*
X017328Y001757D01*
X017397Y001777D01*
X017464Y001801D01*
X017530Y001828D01*
X017594Y001859D01*
X017656Y001894D01*
X017716Y001932D01*
X017774Y001973D01*
X017830Y002018D01*
X017883Y002065D01*
X017934Y002116D01*
X017981Y002169D01*
X018026Y002224D01*
X018019Y002230D01*
X017974Y002175D01*
X017927Y002122D01*
X017877Y002072D01*
X017824Y002025D01*
X017769Y001981D01*
X017711Y001939D01*
X017652Y001902D01*
X017590Y001867D01*
X017526Y001836D01*
X017461Y001809D01*
X017394Y001785D01*
X017326Y001765D01*
X017257Y001749D01*
X017188Y001737D01*
X017117Y001728D01*
X017047Y001724D01*
X016976Y001723D01*
X016905Y001727D01*
X016835Y001734D01*
X016765Y001745D01*
X016696Y001760D01*
X016628Y001779D01*
X016560Y001801D01*
X016495Y001827D01*
X016430Y001857D01*
X016368Y001890D01*
X016308Y001927D01*
X016249Y001967D01*
X016193Y002010D01*
X016139Y002056D01*
X016089Y002106D01*
X016040Y002157D01*
X015995Y002212D01*
X015953Y002269D01*
X015914Y002328D01*
X015879Y002389D01*
X015846Y002452D01*
X015818Y002517D01*
X015793Y002583D01*
X015772Y002651D01*
X015754Y002719D01*
X015741Y002789D01*
X015731Y002859D01*
X015725Y002929D01*
X015723Y003000D01*
X015725Y003071D01*
X015731Y003141D01*
X015741Y003211D01*
X015754Y003281D01*
X015772Y003349D01*
X015793Y003417D01*
X015818Y003483D01*
X015846Y003548D01*
X015879Y003611D01*
X015914Y003672D01*
X015953Y003731D01*
X015995Y003788D01*
X016040Y003843D01*
X016089Y003894D01*
X016139Y003944D01*
X016193Y003990D01*
X016249Y004033D01*
X016308Y004073D01*
X016368Y004110D01*
X016430Y004143D01*
X016495Y004173D01*
X016560Y004199D01*
X016628Y004221D01*
X016696Y004240D01*
X016765Y004255D01*
X016835Y004266D01*
X016905Y004273D01*
X016976Y004277D01*
X017047Y004276D01*
X017117Y004272D01*
X017188Y004263D01*
X017257Y004251D01*
X017326Y004235D01*
X017394Y004215D01*
X017461Y004191D01*
X017526Y004164D01*
X017590Y004133D01*
X017652Y004098D01*
X017711Y004061D01*
X017769Y004019D01*
X017824Y003975D01*
X017877Y003928D01*
X017927Y003878D01*
X017974Y003825D01*
X018019Y003770D01*
X018011Y003765D01*
X017967Y003820D01*
X017919Y003873D01*
X017869Y003923D01*
X017816Y003971D01*
X017760Y004015D01*
X017702Y004056D01*
X017642Y004093D01*
X017580Y004128D01*
X017516Y004158D01*
X017450Y004185D01*
X017383Y004209D01*
X017315Y004228D01*
X017245Y004244D01*
X017175Y004256D01*
X017105Y004264D01*
X017034Y004268D01*
X016963Y004267D01*
X016892Y004263D01*
X016821Y004255D01*
X016751Y004243D01*
X016682Y004227D01*
X016614Y004208D01*
X016546Y004184D01*
X016481Y004157D01*
X016417Y004126D01*
X016355Y004092D01*
X016295Y004054D01*
X016237Y004012D01*
X016181Y003968D01*
X016128Y003921D01*
X016078Y003870D01*
X016031Y003817D01*
X015986Y003762D01*
X015945Y003704D01*
X015908Y003644D01*
X015873Y003581D01*
X015842Y003517D01*
X015815Y003452D01*
X015792Y003385D01*
X015772Y003316D01*
X015756Y003247D01*
X015744Y003177D01*
X015736Y003106D01*
X015732Y003036D01*
X015732Y002964D01*
X015736Y002894D01*
X015744Y002823D01*
X015756Y002753D01*
X015772Y002684D01*
X015792Y002615D01*
X015815Y002548D01*
X015842Y002483D01*
X015873Y002419D01*
X015908Y002356D01*
X015945Y002296D01*
X015986Y002238D01*
X016031Y002183D01*
X016078Y002130D01*
X016128Y002079D01*
X016181Y002032D01*
X016237Y001988D01*
X016295Y001946D01*
X016355Y001908D01*
X016417Y001874D01*
X016481Y001843D01*
X016546Y001816D01*
X016614Y001792D01*
X016682Y001773D01*
X016751Y001757D01*
X016821Y001745D01*
X016892Y001737D01*
X016963Y001733D01*
X017034Y001732D01*
X017105Y001736D01*
X017175Y001744D01*
X017245Y001756D01*
X017315Y001772D01*
X017383Y001791D01*
X017450Y001815D01*
X017516Y001842D01*
X017580Y001872D01*
X017642Y001907D01*
X017702Y001944D01*
X017760Y001985D01*
X017816Y002029D01*
X017869Y002077D01*
X017919Y002127D01*
X017967Y002180D01*
X018011Y002235D01*
X018004Y002241D01*
X017960Y002186D01*
X017913Y002133D01*
X017863Y002083D01*
X017810Y002036D01*
X017755Y001992D01*
X017697Y001952D01*
X017638Y001914D01*
X017576Y001880D01*
X017512Y001850D01*
X017447Y001823D01*
X017380Y001800D01*
X017312Y001780D01*
X017244Y001765D01*
X017174Y001753D01*
X017104Y001745D01*
X017033Y001741D01*
X016963Y001742D01*
X016892Y001746D01*
X016822Y001754D01*
X016753Y001766D01*
X016684Y001781D01*
X016616Y001801D01*
X016550Y001824D01*
X016485Y001851D01*
X016421Y001882D01*
X016359Y001916D01*
X016300Y001954D01*
X016242Y001995D01*
X016187Y002039D01*
X016134Y002086D01*
X016085Y002136D01*
X016038Y002188D01*
X015994Y002244D01*
X015953Y002301D01*
X015915Y002361D01*
X015881Y002423D01*
X015851Y002486D01*
X015824Y002551D01*
X015800Y002618D01*
X015781Y002686D01*
X015765Y002755D01*
X015753Y002824D01*
X015745Y002894D01*
X015741Y002965D01*
X015741Y003035D01*
X015745Y003106D01*
X015753Y003176D01*
X015765Y003245D01*
X015781Y003314D01*
X015800Y003382D01*
X015824Y003449D01*
X015851Y003514D01*
X015881Y003577D01*
X015915Y003639D01*
X015953Y003699D01*
X015994Y003756D01*
X016038Y003812D01*
X016085Y003864D01*
X016134Y003914D01*
X016187Y003961D01*
X016242Y004005D01*
X016300Y004046D01*
X016359Y004084D01*
X016421Y004118D01*
X016485Y004149D01*
X016550Y004176D01*
X016616Y004199D01*
X016684Y004219D01*
X016753Y004234D01*
X016822Y004246D01*
X016892Y004254D01*
X016963Y004258D01*
X017033Y004259D01*
X017104Y004255D01*
X017174Y004247D01*
X017244Y004235D01*
X017312Y004220D01*
X017380Y004200D01*
X017447Y004177D01*
X017512Y004150D01*
X017576Y004120D01*
X017638Y004086D01*
X017697Y004048D01*
X017755Y004008D01*
X017810Y003964D01*
X017863Y003917D01*
X017913Y003867D01*
X017960Y003814D01*
X018004Y003759D01*
X017997Y003754D01*
X017953Y003809D01*
X017906Y003861D01*
X017857Y003910D01*
X017804Y003957D01*
X017750Y004000D01*
X017692Y004041D01*
X017633Y004078D01*
X017572Y004112D01*
X017508Y004142D01*
X017444Y004169D01*
X017377Y004192D01*
X017310Y004211D01*
X017242Y004226D01*
X017173Y004238D01*
X017103Y004246D01*
X017033Y004250D01*
X016963Y004249D01*
X016893Y004245D01*
X016824Y004237D01*
X016755Y004226D01*
X016686Y004210D01*
X016619Y004191D01*
X016553Y004167D01*
X016488Y004140D01*
X016425Y004110D01*
X016364Y004076D01*
X016305Y004039D01*
X016247Y003998D01*
X016193Y003954D01*
X016141Y003908D01*
X016091Y003858D01*
X016044Y003806D01*
X016001Y003751D01*
X015960Y003694D01*
X015923Y003635D01*
X015889Y003573D01*
X015859Y003510D01*
X015832Y003445D01*
X015809Y003379D01*
X015790Y003312D01*
X015774Y003244D01*
X015762Y003175D01*
X015754Y003105D01*
X015750Y003035D01*
X015750Y002965D01*
X015754Y002895D01*
X015762Y002825D01*
X015774Y002756D01*
X015790Y002688D01*
X015809Y002621D01*
X015832Y002555D01*
X015859Y002490D01*
X015889Y002427D01*
X015923Y002365D01*
X015960Y002306D01*
X016001Y002249D01*
X016044Y002194D01*
X016091Y002142D01*
X016141Y002092D01*
X016193Y002046D01*
X016247Y002002D01*
X016305Y001961D01*
X016364Y001924D01*
X016425Y001890D01*
X016488Y001860D01*
X016553Y001833D01*
X016619Y001809D01*
X016686Y001790D01*
X016755Y001774D01*
X016824Y001763D01*
X016893Y001755D01*
X016963Y001751D01*
X017033Y001750D01*
X017103Y001754D01*
X017173Y001762D01*
X017242Y001774D01*
X017310Y001789D01*
X017377Y001808D01*
X017444Y001831D01*
X017508Y001858D01*
X017572Y001888D01*
X017633Y001922D01*
X017692Y001959D01*
X017750Y002000D01*
X017804Y002043D01*
X017857Y002090D01*
X017906Y002139D01*
X017953Y002191D01*
X017997Y002246D01*
X017990Y002251D01*
X017946Y002197D01*
X017900Y002145D01*
X017851Y002096D01*
X017799Y002050D01*
X017744Y002007D01*
X017687Y001967D01*
X017628Y001930D01*
X017567Y001896D01*
X017505Y001866D01*
X017440Y001840D01*
X017375Y001817D01*
X017308Y001798D01*
X017240Y001782D01*
X017171Y001771D01*
X017102Y001763D01*
X017033Y001759D01*
X016963Y001760D01*
X016894Y001764D01*
X016825Y001771D01*
X016756Y001783D01*
X016689Y001799D01*
X016622Y001818D01*
X016556Y001841D01*
X016492Y001868D01*
X016429Y001898D01*
X016368Y001932D01*
X016310Y001969D01*
X016253Y002009D01*
X016199Y002052D01*
X016147Y002099D01*
X016098Y002148D01*
X016051Y002200D01*
X016008Y002254D01*
X015968Y002311D01*
X015931Y002370D01*
X015897Y002431D01*
X015867Y002494D01*
X015840Y002558D01*
X015817Y002623D01*
X015798Y002690D01*
X015783Y002758D01*
X015771Y002827D01*
X015763Y002896D01*
X015759Y002965D01*
X015759Y003035D01*
X015763Y003104D01*
X015771Y003173D01*
X015783Y003242D01*
X015798Y003310D01*
X015817Y003377D01*
X015840Y003442D01*
X015867Y003506D01*
X015897Y003569D01*
X015931Y003630D01*
X015968Y003689D01*
X016008Y003746D01*
X016051Y003800D01*
X016098Y003852D01*
X016147Y003901D01*
X016199Y003948D01*
X016253Y003991D01*
X016310Y004031D01*
X016368Y004068D01*
X016429Y004102D01*
X016492Y004132D01*
X016556Y004159D01*
X016622Y004182D01*
X016689Y004201D01*
X016756Y004217D01*
X016825Y004229D01*
X016894Y004236D01*
X016963Y004240D01*
X017033Y004241D01*
X017102Y004237D01*
X017171Y004229D01*
X017240Y004218D01*
X017308Y004202D01*
X017375Y004183D01*
X017440Y004160D01*
X017505Y004134D01*
X017567Y004104D01*
X017628Y004070D01*
X017687Y004033D01*
X017744Y003993D01*
X017799Y003950D01*
X017851Y003904D01*
X017900Y003855D01*
X017946Y003803D01*
X017990Y003749D01*
X017983Y003743D01*
X017939Y003797D01*
X017893Y003848D01*
X017844Y003897D01*
X017793Y003943D01*
X017739Y003986D01*
X017682Y004026D01*
X017624Y004062D01*
X017563Y004096D01*
X017501Y004126D01*
X017437Y004152D01*
X017372Y004174D01*
X017306Y004193D01*
X017238Y004209D01*
X017170Y004220D01*
X017102Y004228D01*
X017033Y004232D01*
X016964Y004231D01*
X016895Y004227D01*
X016826Y004220D01*
X016758Y004208D01*
X016691Y004193D01*
X016624Y004173D01*
X016559Y004150D01*
X016496Y004124D01*
X016433Y004094D01*
X016373Y004061D01*
X016315Y004024D01*
X016258Y003984D01*
X016204Y003941D01*
X016153Y003895D01*
X016104Y003846D01*
X016058Y003794D01*
X016015Y003740D01*
X015975Y003684D01*
X015939Y003625D01*
X015905Y003565D01*
X015875Y003503D01*
X015849Y003439D01*
X015826Y003374D01*
X015807Y003307D01*
X015792Y003240D01*
X015780Y003172D01*
X015772Y003103D01*
X015768Y003035D01*
X015768Y002965D01*
X015772Y002897D01*
X015780Y002828D01*
X015792Y002760D01*
X015807Y002693D01*
X015826Y002626D01*
X015849Y002561D01*
X015875Y002497D01*
X015905Y002435D01*
X015939Y002375D01*
X015975Y002316D01*
X016015Y002260D01*
X016058Y002206D01*
X016104Y002154D01*
X016153Y002105D01*
X016204Y002059D01*
X016258Y002016D01*
X016315Y001976D01*
X016373Y001939D01*
X016433Y001906D01*
X016496Y001876D01*
X016559Y001850D01*
X016624Y001827D01*
X016691Y001807D01*
X016758Y001792D01*
X016826Y001780D01*
X016895Y001773D01*
X016964Y001769D01*
X017033Y001768D01*
X017102Y001772D01*
X017170Y001780D01*
X017238Y001791D01*
X017306Y001807D01*
X017372Y001826D01*
X017437Y001848D01*
X017501Y001874D01*
X017563Y001904D01*
X017624Y001938D01*
X017682Y001974D01*
X017739Y002014D01*
X017793Y002057D01*
X017844Y002103D01*
X017893Y002152D01*
X017939Y002203D01*
X017983Y002257D01*
X017975Y002262D01*
X017932Y002208D01*
X017886Y002157D01*
X017836Y002108D01*
X017785Y002062D01*
X017730Y002019D01*
X017673Y001979D01*
X017615Y001943D01*
X017554Y001909D01*
X017491Y001880D01*
X017427Y001854D01*
X017361Y001832D01*
X017294Y001813D01*
X017227Y001798D01*
X017158Y001787D01*
X017089Y001780D01*
X017020Y001777D01*
X016951Y001778D01*
X016881Y001783D01*
X016813Y001791D01*
X016745Y001804D01*
X016677Y001820D01*
X016611Y001841D01*
X016546Y001864D01*
X016482Y001892D01*
X016420Y001923D01*
X016360Y001958D01*
X016302Y001996D01*
X016246Y002037D01*
X016193Y002081D01*
X016142Y002128D01*
X016094Y002178D01*
X016049Y002231D01*
X016007Y002286D01*
X015968Y002343D01*
X015933Y002403D01*
X015901Y002464D01*
X015872Y002527D01*
X015847Y002592D01*
X015826Y002658D01*
X015808Y002725D01*
X015795Y002793D01*
X015785Y002862D01*
X015779Y002931D01*
X015777Y003000D01*
X015779Y003069D01*
X015785Y003138D01*
X015795Y003207D01*
X015808Y003275D01*
X015826Y003342D01*
X015847Y003408D01*
X015872Y003473D01*
X015901Y003536D01*
X015933Y003597D01*
X015968Y003657D01*
X016007Y003714D01*
X016049Y003769D01*
X016094Y003822D01*
X016142Y003872D01*
X016193Y003919D01*
X016246Y003963D01*
X016302Y004004D01*
X016360Y004042D01*
X016420Y004077D01*
X016482Y004108D01*
X016546Y004136D01*
X016611Y004159D01*
X016677Y004180D01*
X016745Y004196D01*
X016813Y004209D01*
X016881Y004217D01*
X016951Y004222D01*
X017020Y004223D01*
X017089Y004220D01*
X017158Y004213D01*
X017227Y004202D01*
X017294Y004187D01*
X017361Y004168D01*
X017427Y004146D01*
X017491Y004120D01*
X017554Y004091D01*
X017615Y004057D01*
X017673Y004021D01*
X017730Y003981D01*
X017785Y003938D01*
X017836Y003892D01*
X017886Y003843D01*
X017932Y003792D01*
X017975Y003738D01*
X017968Y003732D01*
X017925Y003786D01*
X017879Y003837D01*
X017830Y003886D01*
X017779Y003931D01*
X017725Y003974D01*
X017668Y004013D01*
X017610Y004050D01*
X017550Y004083D01*
X017487Y004112D01*
X017424Y004138D01*
X017358Y004160D01*
X017292Y004178D01*
X017225Y004193D01*
X017157Y004204D01*
X017088Y004211D01*
X017020Y004214D01*
X016951Y004213D01*
X016882Y004208D01*
X016814Y004200D01*
X016746Y004187D01*
X016680Y004171D01*
X016614Y004151D01*
X016549Y004127D01*
X016486Y004100D01*
X016425Y004069D01*
X016365Y004035D01*
X016307Y003997D01*
X016252Y003956D01*
X016199Y003912D01*
X016149Y003865D01*
X016101Y003816D01*
X016056Y003764D01*
X016014Y003709D01*
X015976Y003652D01*
X015941Y003593D01*
X015909Y003532D01*
X015880Y003469D01*
X015856Y003405D01*
X015834Y003339D01*
X015817Y003273D01*
X015804Y003205D01*
X015794Y003137D01*
X015788Y003069D01*
X015786Y003000D01*
X015788Y002931D01*
X015794Y002863D01*
X015804Y002795D01*
X015817Y002727D01*
X015834Y002661D01*
X015856Y002595D01*
X015880Y002531D01*
X015909Y002468D01*
X015941Y002407D01*
X015976Y002348D01*
X016014Y002291D01*
X016056Y002236D01*
X016101Y002184D01*
X016149Y002135D01*
X016199Y002088D01*
X016252Y002044D01*
X016307Y002003D01*
X016365Y001965D01*
X016425Y001931D01*
X016486Y001900D01*
X016549Y001873D01*
X016614Y001849D01*
X016680Y001829D01*
X016746Y001813D01*
X016814Y001800D01*
X016882Y001792D01*
X016951Y001787D01*
X017020Y001786D01*
X017088Y001789D01*
X017157Y001796D01*
X017225Y001807D01*
X017292Y001822D01*
X017358Y001840D01*
X017424Y001862D01*
X017487Y001888D01*
X017550Y001917D01*
X017610Y001950D01*
X017668Y001987D01*
X017725Y002026D01*
X017779Y002069D01*
X017830Y002114D01*
X017879Y002163D01*
X017925Y002214D01*
X017968Y002268D01*
X017004Y002326D02*
X017004Y002376D01*
X017005Y002375D02*
X017054Y002377D01*
X017102Y002383D01*
X017149Y002393D01*
X017196Y002407D01*
X017241Y002424D01*
X017286Y002444D01*
X017328Y002468D01*
X017368Y002495D01*
X017406Y002525D01*
X017442Y002558D01*
X017475Y002594D01*
X017505Y002632D01*
X017532Y002672D01*
X017556Y002714D01*
X017576Y002759D01*
X017593Y002804D01*
X017607Y002851D01*
X017617Y002898D01*
X017623Y002946D01*
X017625Y002995D01*
X017674Y002996D01*
X017675Y002995D01*
X017673Y002945D01*
X017667Y002895D01*
X017657Y002846D01*
X017644Y002798D01*
X017627Y002751D01*
X017607Y002705D01*
X017584Y002661D01*
X017557Y002619D01*
X017527Y002579D01*
X017495Y002541D01*
X017459Y002505D01*
X017421Y002473D01*
X017381Y002443D01*
X017339Y002416D01*
X017295Y002393D01*
X017249Y002373D01*
X017202Y002356D01*
X017154Y002343D01*
X017105Y002333D01*
X017055Y002327D01*
X017005Y002325D01*
X017005Y002334D01*
X017054Y002336D01*
X017103Y002342D01*
X017152Y002352D01*
X017199Y002365D01*
X017246Y002381D01*
X017291Y002401D01*
X017334Y002424D01*
X017376Y002450D01*
X017416Y002480D01*
X017453Y002512D01*
X017488Y002547D01*
X017520Y002584D01*
X017550Y002624D01*
X017576Y002666D01*
X017599Y002709D01*
X017619Y002754D01*
X017635Y002801D01*
X017648Y002848D01*
X017658Y002897D01*
X017664Y002946D01*
X017666Y002995D01*
X017657Y002995D01*
X017655Y002946D01*
X017649Y002898D01*
X017640Y002850D01*
X017627Y002803D01*
X017611Y002758D01*
X017591Y002713D01*
X017568Y002670D01*
X017542Y002629D01*
X017513Y002590D01*
X017481Y002553D01*
X017447Y002519D01*
X017410Y002487D01*
X017371Y002458D01*
X017330Y002432D01*
X017287Y002409D01*
X017242Y002389D01*
X017197Y002373D01*
X017150Y002360D01*
X017102Y002351D01*
X017054Y002345D01*
X017005Y002343D01*
X017005Y002352D01*
X017055Y002354D01*
X017105Y002361D01*
X017155Y002371D01*
X017203Y002385D01*
X017250Y002402D01*
X017296Y002424D01*
X017340Y002448D01*
X017382Y002476D01*
X017421Y002508D01*
X017458Y002542D01*
X017492Y002579D01*
X017524Y002618D01*
X017552Y002660D01*
X017576Y002704D01*
X017598Y002750D01*
X017615Y002797D01*
X017629Y002845D01*
X017639Y002895D01*
X017646Y002945D01*
X017648Y002995D01*
X017639Y002995D01*
X017637Y002945D01*
X017630Y002896D01*
X017621Y002847D01*
X017607Y002800D01*
X017589Y002753D01*
X017568Y002708D01*
X017544Y002665D01*
X017516Y002624D01*
X017486Y002585D01*
X017452Y002548D01*
X017415Y002514D01*
X017376Y002484D01*
X017335Y002456D01*
X017292Y002432D01*
X017247Y002411D01*
X017200Y002393D01*
X017153Y002379D01*
X017104Y002370D01*
X017055Y002363D01*
X017005Y002361D01*
X017005Y002370D01*
X017054Y002372D01*
X017103Y002378D01*
X017150Y002388D01*
X017198Y002402D01*
X017243Y002419D01*
X017288Y002440D01*
X017330Y002464D01*
X017371Y002491D01*
X017410Y002521D01*
X017445Y002555D01*
X017479Y002590D01*
X017509Y002629D01*
X017536Y002670D01*
X017560Y002712D01*
X017581Y002757D01*
X017598Y002802D01*
X017612Y002850D01*
X017622Y002897D01*
X017628Y002946D01*
X017630Y002995D01*
X016996Y003674D02*
X016996Y003624D01*
X016995Y003625D02*
X016946Y003623D01*
X016898Y003617D01*
X016851Y003607D01*
X016804Y003593D01*
X016759Y003576D01*
X016714Y003556D01*
X016672Y003532D01*
X016632Y003505D01*
X016594Y003475D01*
X016558Y003442D01*
X016525Y003406D01*
X016495Y003368D01*
X016468Y003328D01*
X016444Y003286D01*
X016424Y003241D01*
X016407Y003196D01*
X016393Y003149D01*
X016383Y003102D01*
X016377Y003054D01*
X016375Y003005D01*
X016326Y003004D01*
X016325Y003005D01*
X016327Y003055D01*
X016333Y003105D01*
X016343Y003154D01*
X016356Y003202D01*
X016373Y003249D01*
X016393Y003295D01*
X016416Y003339D01*
X016443Y003381D01*
X016473Y003421D01*
X016505Y003459D01*
X016541Y003495D01*
X016579Y003527D01*
X016619Y003557D01*
X016661Y003584D01*
X016705Y003607D01*
X016751Y003627D01*
X016798Y003644D01*
X016846Y003657D01*
X016895Y003667D01*
X016945Y003673D01*
X016995Y003675D01*
X016995Y003666D01*
X016946Y003664D01*
X016897Y003658D01*
X016848Y003648D01*
X016801Y003635D01*
X016754Y003619D01*
X016709Y003599D01*
X016666Y003576D01*
X016624Y003550D01*
X016584Y003520D01*
X016547Y003488D01*
X016512Y003453D01*
X016480Y003416D01*
X016450Y003376D01*
X016424Y003334D01*
X016401Y003291D01*
X016381Y003246D01*
X016365Y003199D01*
X016352Y003152D01*
X016342Y003103D01*
X016336Y003054D01*
X016334Y003005D01*
X016343Y003005D01*
X016345Y003054D01*
X016351Y003102D01*
X016360Y003150D01*
X016373Y003197D01*
X016389Y003242D01*
X016409Y003287D01*
X016432Y003330D01*
X016458Y003371D01*
X016487Y003410D01*
X016519Y003447D01*
X016553Y003481D01*
X016590Y003513D01*
X016629Y003542D01*
X016670Y003568D01*
X016713Y003591D01*
X016758Y003611D01*
X016803Y003627D01*
X016850Y003640D01*
X016898Y003649D01*
X016946Y003655D01*
X016995Y003657D01*
X016995Y003648D01*
X016945Y003646D01*
X016895Y003639D01*
X016845Y003629D01*
X016797Y003615D01*
X016750Y003598D01*
X016704Y003576D01*
X016660Y003552D01*
X016618Y003524D01*
X016579Y003492D01*
X016542Y003458D01*
X016508Y003421D01*
X016476Y003382D01*
X016448Y003340D01*
X016424Y003296D01*
X016402Y003250D01*
X016385Y003203D01*
X016371Y003155D01*
X016361Y003105D01*
X016354Y003055D01*
X016352Y003005D01*
X016361Y003005D01*
X016363Y003055D01*
X016370Y003104D01*
X016379Y003153D01*
X016393Y003200D01*
X016411Y003247D01*
X016432Y003292D01*
X016456Y003335D01*
X016484Y003376D01*
X016514Y003415D01*
X016548Y003452D01*
X016585Y003486D01*
X016624Y003516D01*
X016665Y003544D01*
X016708Y003568D01*
X016753Y003589D01*
X016800Y003607D01*
X016847Y003621D01*
X016896Y003630D01*
X016945Y003637D01*
X016995Y003639D01*
X016995Y003630D01*
X016946Y003628D01*
X016897Y003622D01*
X016850Y003612D01*
X016802Y003598D01*
X016757Y003581D01*
X016712Y003560D01*
X016670Y003536D01*
X016629Y003509D01*
X016590Y003479D01*
X016555Y003445D01*
X016521Y003410D01*
X016491Y003371D01*
X016464Y003330D01*
X016440Y003288D01*
X016419Y003243D01*
X016402Y003198D01*
X016388Y003150D01*
X016378Y003103D01*
X016372Y003054D01*
X016370Y003005D01*
X017004Y002526D02*
X017004Y002576D01*
X017005Y002575D02*
X017044Y002577D01*
X017082Y002583D01*
X017119Y002592D01*
X017156Y002605D01*
X017191Y002620D01*
X017225Y002639D01*
X017257Y002661D01*
X017287Y002686D01*
X017314Y002713D01*
X017339Y002743D01*
X017361Y002775D01*
X017380Y002809D01*
X017395Y002844D01*
X017408Y002881D01*
X017417Y002918D01*
X017423Y002956D01*
X017425Y002995D01*
X017474Y002996D01*
X017475Y002995D01*
X017473Y002954D01*
X017467Y002914D01*
X017458Y002874D01*
X017445Y002835D01*
X017430Y002797D01*
X017411Y002761D01*
X017388Y002727D01*
X017364Y002694D01*
X017336Y002664D01*
X017306Y002636D01*
X017273Y002612D01*
X017239Y002589D01*
X017203Y002570D01*
X017165Y002555D01*
X017126Y002542D01*
X017086Y002533D01*
X017046Y002527D01*
X017005Y002525D01*
X017005Y002534D01*
X017047Y002536D01*
X017089Y002543D01*
X017131Y002553D01*
X017171Y002566D01*
X017210Y002584D01*
X017247Y002605D01*
X017282Y002629D01*
X017314Y002656D01*
X017344Y002686D01*
X017371Y002718D01*
X017395Y002753D01*
X017416Y002790D01*
X017434Y002829D01*
X017447Y002869D01*
X017457Y002911D01*
X017464Y002953D01*
X017466Y002995D01*
X017457Y002995D01*
X017455Y002953D01*
X017449Y002912D01*
X017439Y002872D01*
X017425Y002832D01*
X017408Y002794D01*
X017388Y002758D01*
X017364Y002724D01*
X017338Y002692D01*
X017308Y002662D01*
X017276Y002636D01*
X017242Y002612D01*
X017206Y002592D01*
X017168Y002575D01*
X017128Y002561D01*
X017088Y002551D01*
X017047Y002545D01*
X017005Y002543D01*
X017005Y002552D01*
X017046Y002554D01*
X017086Y002560D01*
X017126Y002570D01*
X017164Y002583D01*
X017202Y002600D01*
X017237Y002620D01*
X017271Y002643D01*
X017302Y002669D01*
X017331Y002698D01*
X017357Y002729D01*
X017380Y002763D01*
X017400Y002798D01*
X017417Y002836D01*
X017430Y002874D01*
X017440Y002914D01*
X017446Y002954D01*
X017448Y002995D01*
X017439Y002995D01*
X017437Y002955D01*
X017431Y002916D01*
X017421Y002877D01*
X017408Y002839D01*
X017392Y002802D01*
X017372Y002768D01*
X017350Y002735D01*
X017324Y002704D01*
X017296Y002676D01*
X017265Y002650D01*
X017232Y002628D01*
X017198Y002608D01*
X017161Y002592D01*
X017123Y002579D01*
X017084Y002569D01*
X017045Y002563D01*
X017005Y002561D01*
X017005Y002570D01*
X017044Y002572D01*
X017083Y002578D01*
X017121Y002587D01*
X017158Y002600D01*
X017194Y002616D01*
X017228Y002635D01*
X017260Y002657D01*
X017290Y002682D01*
X017318Y002710D01*
X017343Y002740D01*
X017365Y002772D01*
X017384Y002806D01*
X017400Y002842D01*
X017413Y002879D01*
X017422Y002917D01*
X017428Y002956D01*
X017430Y002995D01*
X016996Y003474D02*
X016996Y003424D01*
X016995Y003425D02*
X016956Y003423D01*
X016918Y003417D01*
X016881Y003408D01*
X016844Y003395D01*
X016809Y003380D01*
X016775Y003361D01*
X016743Y003339D01*
X016713Y003314D01*
X016686Y003287D01*
X016661Y003257D01*
X016639Y003225D01*
X016620Y003191D01*
X016605Y003156D01*
X016592Y003119D01*
X016583Y003082D01*
X016577Y003044D01*
X016575Y003005D01*
X016526Y003004D01*
X016525Y003005D01*
X016527Y003046D01*
X016533Y003086D01*
X016542Y003126D01*
X016555Y003165D01*
X016570Y003203D01*
X016589Y003239D01*
X016612Y003273D01*
X016636Y003306D01*
X016664Y003336D01*
X016694Y003364D01*
X016727Y003388D01*
X016761Y003411D01*
X016797Y003430D01*
X016835Y003445D01*
X016874Y003458D01*
X016914Y003467D01*
X016954Y003473D01*
X016995Y003475D01*
X016995Y003466D01*
X016953Y003464D01*
X016911Y003457D01*
X016869Y003447D01*
X016829Y003434D01*
X016790Y003416D01*
X016753Y003395D01*
X016718Y003371D01*
X016686Y003344D01*
X016656Y003314D01*
X016629Y003282D01*
X016605Y003247D01*
X016584Y003210D01*
X016566Y003171D01*
X016553Y003131D01*
X016543Y003089D01*
X016536Y003047D01*
X016534Y003005D01*
X016543Y003005D01*
X016545Y003047D01*
X016551Y003088D01*
X016561Y003128D01*
X016575Y003168D01*
X016592Y003206D01*
X016612Y003242D01*
X016636Y003276D01*
X016662Y003308D01*
X016692Y003338D01*
X016724Y003364D01*
X016758Y003388D01*
X016794Y003408D01*
X016832Y003425D01*
X016872Y003439D01*
X016912Y003449D01*
X016953Y003455D01*
X016995Y003457D01*
X016995Y003448D01*
X016954Y003446D01*
X016914Y003440D01*
X016874Y003430D01*
X016836Y003417D01*
X016798Y003400D01*
X016763Y003380D01*
X016729Y003357D01*
X016698Y003331D01*
X016669Y003302D01*
X016643Y003271D01*
X016620Y003237D01*
X016600Y003202D01*
X016583Y003164D01*
X016570Y003126D01*
X016560Y003086D01*
X016554Y003046D01*
X016552Y003005D01*
X016561Y003005D01*
X016563Y003045D01*
X016569Y003084D01*
X016579Y003123D01*
X016592Y003161D01*
X016608Y003198D01*
X016628Y003232D01*
X016650Y003265D01*
X016676Y003296D01*
X016704Y003324D01*
X016735Y003350D01*
X016768Y003372D01*
X016802Y003392D01*
X016839Y003408D01*
X016877Y003421D01*
X016916Y003431D01*
X016955Y003437D01*
X016995Y003439D01*
X016995Y003430D01*
X016956Y003428D01*
X016917Y003422D01*
X016879Y003413D01*
X016842Y003400D01*
X016806Y003384D01*
X016772Y003365D01*
X016740Y003343D01*
X016710Y003318D01*
X016682Y003290D01*
X016657Y003260D01*
X016635Y003228D01*
X016616Y003194D01*
X016600Y003158D01*
X016587Y003121D01*
X016578Y003083D01*
X016572Y003044D01*
X016570Y003005D01*
D31*
X014020Y003500D03*
X012980Y003500D03*
X012980Y005000D03*
X014020Y005000D03*
X014020Y006500D03*
X012980Y006500D03*
D32*
X017500Y009000D02*
X017500Y009150D01*
X017500Y011850D02*
X017500Y012000D01*
D33*
X017500Y011800D03*
X017500Y009200D03*
D34*
X017225Y006500D03*
D35*
X013500Y015660D03*
X013500Y016340D03*
M02*
